<?xml version="1.0" encoding="UTF-8"?>
<!DOCTYPE svg PUBLIC "-//W3C//DTD SVG 1.1//EN" "http://www.w3.org/Graphics/SVG/1.1/DTD/svg11.dtd">
<svg xmlns="http://www.w3.org/2000/svg" version="1.1" width="512px" height="512px" style="shape-rendering:geometricPrecision; text-rendering:geometricPrecision; image-rendering:optimizeQuality; fill-rule:evenodd; clip-rule:evenodd" xmlns:xlink="http://www.w3.org/1999/xlink">
<g><path style="opacity:0.943" fill="#000000" d="M 135.5,-0.5 C 200.167,-0.5 264.833,-0.5 329.5,-0.5C 337.958,2.06475 345.624,6.23142 352.5,12C 368.301,29.4686 384.467,46.6353 401,63.5C 405.67,69.8416 409.004,76.8416 411,84.5C 411.5,111.831 411.667,139.165 411.5,166.5C 426.837,166.333 442.17,166.5 457.5,167C 487.802,173.135 505.802,191.301 511.5,221.5C 511.5,299.833 511.5,378.167 511.5,456.5C 505.81,485.856 488.477,504.19 459.5,511.5C 404.167,511.5 348.833,511.5 293.5,511.5C 259.342,501.976 242.008,479.31 241.5,443.5C 238.5,443.5 235.5,443.5 232.5,443.5C 232.219,450.182 229.885,456.015 225.5,461C 232.491,469.824 234.324,479.657 231,490.5C 227.345,498.822 221.178,504.322 212.5,507C 160.5,507.667 108.5,507.667 56.5,507C 24.3366,499.672 5.3366,479.839 -0.5,447.5C -0.5,442.167 -0.5,436.833 -0.5,431.5C 5.44754,396.886 25.7809,376.552 60.5,370.5C 59.6071,361.517 61.9404,353.517 67.5,346.5C 59.2144,335.402 58.3811,323.735 65,311.5C 73.5061,301.495 84.3394,297.495 97.5,299.5C 97.3333,212.833 97.5,126.166 98,39.5C 102.492,18.5116 114.992,5.17827 135.5,-0.5 Z M 138.5,16.5 C 201.5,16.5 264.5,16.5 327.5,16.5C 327.021,38.9242 327.521,61.2576 329,83.5C 330.319,85.4875 332.152,86.6541 334.5,87C 354.497,87.5 374.497,87.6666 394.5,87.5C 394.5,113.833 394.5,140.167 394.5,166.5C 359.793,166.034 325.126,166.534 290.5,168C 261.682,176.486 245.515,195.653 242,225.5C 241.5,292.499 241.333,359.499 241.5,426.5C 236.821,426.666 232.155,426.499 227.5,426C 226.833,425 226.167,424 225.5,423C 234.811,410.187 234.811,397.354 225.5,384.5C 234.784,371.849 234.784,359.182 225.5,346.5C 236.13,330.899 234.464,316.733 220.5,304C 216.768,301.867 212.768,300.534 208.5,300C 177.168,299.5 145.835,299.333 114.5,299.5C 114.333,213.499 114.5,127.499 115,41.5C 117.914,28.422 125.748,20.0887 138.5,16.5 Z M 344.5,29.5 C 357.633,42.8011 370.633,56.3011 383.5,70C 370.504,70.4999 357.504,70.6666 344.5,70.5C 344.5,56.8333 344.5,43.1667 344.5,29.5 Z M 298.5,182.5 C 350.501,182.333 402.501,182.5 454.5,183C 477.732,187.274 491.232,201.107 495,224.5C 495.667,301.167 495.667,377.833 495,454.5C 491.17,475.997 478.67,489.497 457.5,495C 403.833,495.667 350.167,495.667 296.5,495C 278.438,490.729 266.271,479.896 260,462.5C 258.97,458.227 258.303,453.894 258,449.5C 257.027,372.812 257.361,296.145 259,219.5C 264.977,199.352 278.144,187.019 298.5,182.5 Z M 295.5,306.5 C 304.5,306.5 313.5,306.5 322.5,306.5C 322.817,315.085 322.483,323.585 321.5,332C 312.84,332.5 304.173,332.666 295.5,332.5C 295.5,323.833 295.5,315.167 295.5,306.5 Z M 363.5,306.5 C 372.167,306.5 380.833,306.5 389.5,306.5C 389.5,315.167 389.5,323.833 389.5,332.5C 380.833,332.5 372.167,332.5 363.5,332.5C 363.5,323.833 363.5,315.167 363.5,306.5 Z M 432.5,306.5 C 441.167,306.5 449.833,306.5 458.5,306.5C 458.5,315.167 458.5,323.833 458.5,332.5C 449.833,332.5 441.167,332.5 432.5,332.5C 432.5,323.833 432.5,315.167 432.5,306.5 Z M 86.5,316.5 C 126.501,316.333 166.501,316.5 206.5,317C 215.623,320.586 217.623,326.586 212.5,335C 210.192,336.867 207.525,337.867 204.5,338C 165.833,338.667 127.167,338.667 88.5,338C 78.3001,335.767 75.4668,329.933 80,320.5C 82.0948,318.875 84.2615,317.542 86.5,316.5 Z M 84.5,355.5 C 126.168,355.333 167.835,355.5 209.5,356C 215.864,360.34 217.031,365.84 213,372.5C 211.2,374.317 209.034,375.484 206.5,376C 179.167,376.667 151.833,376.667 124.5,376C 118.976,373.869 113.309,372.202 107.5,371C 97.8162,370.832 88.1495,370.332 78.5,369.5C 76.6492,363.2 78.6492,358.533 84.5,355.5 Z M 295.5,373.5 C 304.173,373.334 312.84,373.5 321.5,374C 322.483,382.415 322.817,390.915 322.5,399.5C 313.5,399.5 304.5,399.5 295.5,399.5C 295.5,390.833 295.5,382.167 295.5,373.5 Z M 363.5,373.5 C 372.167,373.5 380.833,373.5 389.5,373.5C 389.5,382.167 389.5,390.833 389.5,399.5C 380.833,399.5 372.167,399.5 363.5,399.5C 363.5,390.833 363.5,382.167 363.5,373.5 Z M 434.5,373.5 C 441.508,373.334 448.508,373.5 455.5,374C 456.667,374.5 457.5,375.333 458,376.5C 458.667,404.167 458.667,431.833 458,459.5C 457.5,461.333 456.333,462.5 454.5,463C 448.167,463.667 441.833,463.667 435.5,463C 434.667,462.167 433.833,461.333 433,460.5C 432.333,432.167 432.333,403.833 433,375.5C 433.717,374.956 434.217,374.289 434.5,373.5 Z M 87.5,386.5 C 119.243,384.771 139.409,399.104 148,429.5C 150.708,453.246 142.208,471.746 122.5,485C 96.939,497.149 74.439,492.983 55,472.5C 40.8855,452.108 39.8855,431.108 52,409.5C 61.1222,397.526 72.9556,389.859 87.5,386.5 Z M 44.5,392.5 C 41.3869,396.549 38.3869,400.716 35.5,405C 33.1667,405.667 30.8333,405.667 28.5,405C 32.8691,399.449 38.2024,395.282 44.5,392.5 Z M 148.5,394.5 C 168.329,393.338 188.329,393.171 208.5,394C 216.484,398.892 217.484,404.892 211.5,412C 210.167,412.667 208.833,413.333 207.5,414C 191.833,414.667 176.167,414.667 160.5,414C 157.461,406.819 153.461,400.319 148.5,394.5 Z M 18.5,421.5 C 22.1817,421.335 25.8484,421.501 29.5,422C 28.2607,425.364 27.5941,428.864 27.5,432.5C 23.8333,432.5 20.1667,432.5 16.5,432.5C 16.6911,428.738 17.3578,425.071 18.5,421.5 Z M 164.5,431.5 C 178.837,431.333 193.171,431.5 207.5,432C 214.032,434.229 216.532,438.729 215,445.5C 213.5,448.333 211.333,450.5 208.5,452C 193.489,452.833 178.489,452.666 163.5,451.5C 164.462,444.892 164.795,438.226 164.5,431.5 Z M 295.5,437.5 C 304.173,437.334 312.84,437.5 321.5,438C 322.752,446.266 322.752,454.766 321.5,463.5C 312.833,463.5 304.167,463.5 295.5,463.5C 295.5,454.833 295.5,446.167 295.5,437.5 Z M 363.5,437.5 C 372.167,437.5 380.833,437.5 389.5,437.5C 389.5,446.167 389.5,454.833 389.5,463.5C 380.833,463.5 372.167,463.5 363.5,463.5C 363.5,454.833 363.5,446.167 363.5,437.5 Z M 16.5,448.5 C 20.226,448.177 23.8927,448.511 27.5,449.5C 28.3132,453.074 29.3132,456.574 30.5,460C 27.1667,460.667 23.8333,460.667 20.5,460C 18.4771,456.41 17.1438,452.576 16.5,448.5 Z M 157.5,469.5 C 174.17,469.333 190.837,469.5 207.5,470C 213.934,472.294 216.434,476.794 215,483.5C 213.5,486.333 211.333,488.5 208.5,490C 186.5,490.667 164.5,490.667 142.5,490C 148.902,484.112 153.902,477.278 157.5,469.5 Z M 44.5,485.5 C 39.5404,483.683 35.2071,480.85 31.5,477C 33.9018,476.186 36.2351,476.353 38.5,477.5C 40.509,480.196 42.509,482.863 44.5,485.5 Z"/></g>
<g><path style="opacity:0.936" fill="#000000" d="M 159.5,102.5 C 206.501,102.333 253.501,102.5 300.5,103C 303.516,104.529 304.849,107.029 304.5,110.5C 304.562,114.609 302.562,117.109 298.5,118C 252.833,118.667 207.167,118.667 161.5,118C 157.334,117.015 155.334,114.348 155.5,110C 155.43,106.634 156.763,104.134 159.5,102.5 Z"/></g>
<g><path style="opacity:0.911" fill="#000000" d="M 323.5,102.5 C 332.506,102.334 341.506,102.5 350.5,103C 356.175,109.32 355.175,114.32 347.5,118C 340.167,118.667 332.833,118.667 325.5,118C 319.842,116.171 318.008,112.337 320,106.5C 320.69,104.65 321.856,103.316 323.5,102.5 Z"/></g>
<g><path style="opacity:0.913" fill="#000000" d="M 160.5,139.5 C 170.506,139.334 180.506,139.5 190.5,140C 197.167,145 197.167,150 190.5,155C 180.5,155.667 170.5,155.667 160.5,155C 155.776,152.565 154.276,148.731 156,143.5C 157.397,141.93 158.897,140.596 160.5,139.5 Z"/></g>
<g><path style="opacity:0.934" fill="#000000" d="M 214.5,139.5 C 259.501,139.333 304.501,139.5 349.5,140C 356.167,145 356.167,150 349.5,155C 304.5,155.667 259.5,155.667 214.5,155C 209.776,152.565 208.276,148.731 210,143.5C 211.397,141.93 212.897,140.596 214.5,139.5 Z"/></g>
<g><path style="opacity:0.916" fill="#000000" d="M 187.5,166.5 C 196.95,165.678 200.617,170.011 198.5,179.5C 204.696,179.465 210.363,181.131 215.5,184.5C 219.054,188.847 218.721,193.014 214.5,197C 213.333,197.167 212.167,197.333 211,197.5C 207.372,196.772 203.872,195.606 200.5,194C 195.833,193.333 191.167,193.333 186.5,194C 180.794,196.245 178.294,200.412 179,206.5C 179.69,209.196 181.19,211.363 183.5,213C 191.084,216.528 198.751,219.861 206.5,223C 219.138,232.112 223.305,244.278 219,259.5C 215.656,268.843 209.156,274.677 199.5,277C 198.869,280.529 198.036,284.029 197,287.5C 193,291.5 189,291.5 185,287.5C 184.005,284.23 183.172,280.897 182.5,277.5C 175.242,276.122 169.075,272.789 164,267.5C 159.7,260.765 161.2,256.099 168.5,253.5C 169.5,253.667 170.5,253.833 171.5,254C 179.386,263.687 189.053,266.021 200.5,261C 208.815,249.275 206.482,240.275 193.5,234C 184.492,231.664 176.492,227.497 169.5,221.5C 162.338,211.166 161.838,200.499 168,189.5C 172.084,184.572 177.251,181.572 183.5,180.5C 182.489,174.959 183.822,170.292 187.5,166.5 Z"/></g>
<g><path style="opacity:0.935" fill="#000000" d="M 300.5,198.5 C 352.546,198.018 404.546,198.518 456.5,200C 465.342,203.184 470.842,209.351 473,218.5C 473.93,232.889 473.597,247.222 472,261.5C 468.674,269.493 462.841,274.659 454.5,277C 423.5,277.667 392.5,277.667 361.5,277C 357.247,273.58 356.413,269.413 359,264.5C 360.171,263.107 361.671,262.273 363.5,262C 392.5,261.667 421.5,261.333 450.5,261C 454,260.167 456.167,258 457,254.5C 457.957,242.736 457.623,231.07 456,219.5C 454.457,217.622 452.624,216.122 450.5,215C 401.5,214.333 352.5,214.333 303.5,215C 299.693,216.14 297.193,218.64 296,222.5C 295.067,233.906 295.4,245.239 297,256.5C 298.543,258.378 300.376,259.878 302.5,261C 313.5,261.333 324.5,261.667 335.5,262C 340.224,264.435 341.724,268.269 340,273.5C 339.5,275.333 338.333,276.5 336.5,277C 322.777,277.926 309.111,277.593 295.5,276C 288.52,272.895 283.686,267.729 281,260.5C 279.43,247.214 279.097,233.881 280,220.5C 282.582,209.088 289.416,201.755 300.5,198.5 Z"/></g>
<g><path style="opacity:0.936" fill="#000000" d="M 290.5,290.5 C 302.838,290.333 315.171,290.5 327.5,291C 333.616,293.451 337.116,297.951 338,304.5C 338.667,314.5 338.667,324.5 338,334.5C 336.909,341.848 332.743,346.348 325.5,348C 314.5,348.667 303.5,348.667 292.5,348C 285.667,346.5 281.5,342.333 280,335.5C 279.333,324.833 279.333,314.167 280,303.5C 281.496,297.509 284.996,293.175 290.5,290.5 Z M 295.5,306.5 C 295.5,315.167 295.5,323.833 295.5,332.5C 304.173,332.666 312.84,332.5 321.5,332C 322.483,323.585 322.817,315.085 322.5,306.5C 313.5,306.5 304.5,306.5 295.5,306.5 Z"/></g>
<g><path style="opacity:0.937" fill="#000000" d="M 358.5,290.5 C 370.838,290.333 383.171,290.5 395.5,291C 400,292.833 403.167,296 405,300.5C 405.667,312.833 405.667,325.167 405,337.5C 402.744,342.757 398.91,346.257 393.5,348C 382.167,348.667 370.833,348.667 359.5,348C 353.667,346.167 349.833,342.333 348,336.5C 347.333,325.167 347.333,313.833 348,302.5C 349.621,296.72 353.121,292.72 358.5,290.5 Z M 363.5,306.5 C 363.5,315.167 363.5,323.833 363.5,332.5C 372.167,332.5 380.833,332.5 389.5,332.5C 389.5,323.833 389.5,315.167 389.5,306.5C 380.833,306.5 372.167,306.5 363.5,306.5 Z"/></g>
<g><path style="opacity:0.939" fill="#000000" d="M 426.5,290.5 C 438.838,290.333 451.171,290.5 463.5,291C 468.757,293.256 472.257,297.09 474,302.5C 474.667,313.5 474.667,324.5 474,335.5C 472.5,342.333 468.333,346.5 461.5,348C 450.5,348.667 439.5,348.667 428.5,348C 423.09,346.257 419.256,342.757 417,337.5C 416.333,325.167 416.333,312.833 417,300.5C 419.022,295.98 422.189,292.647 426.5,290.5 Z M 432.5,306.5 C 432.5,315.167 432.5,323.833 432.5,332.5C 441.167,332.5 449.833,332.5 458.5,332.5C 458.5,323.833 458.5,315.167 458.5,306.5C 449.833,306.5 441.167,306.5 432.5,306.5 Z"/></g>
<g><path style="opacity:0.936" fill="#000000" d="M 291.5,357.5 C 303.171,357.333 314.838,357.5 326.5,358C 333.219,360.052 337.052,364.552 338,371.5C 338.667,381.5 338.667,391.5 338,401.5C 337.023,408.474 333.19,412.974 326.5,415C 314.5,415.667 302.5,415.667 290.5,415C 284.798,412.635 281.298,408.469 280,402.5C 279.333,391.833 279.333,381.167 280,370.5C 281.617,364.058 285.45,359.725 291.5,357.5 Z M 295.5,373.5 C 295.5,382.167 295.5,390.833 295.5,399.5C 304.5,399.5 313.5,399.5 322.5,399.5C 322.817,390.915 322.483,382.415 321.5,374C 312.84,373.5 304.173,373.334 295.5,373.5 Z"/></g>
<g><path style="opacity:0.938" fill="#000000" d="M 359.5,357.5 C 370.838,357.333 382.172,357.5 393.5,358C 397.837,359.339 401.337,361.839 404,365.5C 405.609,378.43 405.942,391.43 405,404.5C 403.5,410 400,413.5 394.5,415C 382.5,415.667 370.5,415.667 358.5,415C 353.243,412.744 349.743,408.91 348,403.5C 347.333,392.167 347.333,380.833 348,369.5C 350.019,363.65 353.852,359.65 359.5,357.5 Z M 363.5,373.5 C 363.5,382.167 363.5,390.833 363.5,399.5C 372.167,399.5 380.833,399.5 389.5,399.5C 389.5,390.833 389.5,382.167 389.5,373.5C 380.833,373.5 372.167,373.5 363.5,373.5 Z"/></g>
<g><path style="opacity:0.939" fill="#000000" d="M 431.5,357.5 C 441.912,357.074 452.246,357.574 462.5,359C 468.837,361.836 472.67,366.669 474,373.5C 474.667,403.167 474.667,432.833 474,462.5C 471.905,470.927 466.739,476.427 458.5,479C 448.758,479.92 439.092,479.587 429.5,478C 423.608,475.108 419.441,470.608 417,464.5C 416.333,433.5 416.333,402.5 417,371.5C 419.749,364.583 424.582,359.917 431.5,357.5 Z M 434.5,373.5 C 434.217,374.289 433.717,374.956 433,375.5C 432.333,403.833 432.333,432.167 433,460.5C 433.833,461.333 434.667,462.167 435.5,463C 441.833,463.667 448.167,463.667 454.5,463C 456.333,462.5 457.5,461.333 458,459.5C 458.667,431.833 458.667,404.167 458,376.5C 457.5,375.333 456.667,374.5 455.5,374C 448.508,373.5 441.508,373.334 434.5,373.5 Z"/></g>
<g><path style="opacity:0.919" fill="#000000" d="M 92.5,398.5 C 95.6492,398.211 98.6492,398.711 101.5,400C 102.708,402.25 104.041,404.417 105.5,406.5C 112.855,407.994 116.022,412.328 115,419.5C 113.734,422.635 111.401,424.302 108,424.5C 104.595,423.199 101.095,422.199 97.5,421.5C 93.2915,421.443 91.9582,423.276 93.5,427C 99.8332,429.438 105.833,432.438 111.5,436C 119.678,446.931 119.345,457.598 110.5,468C 108.783,469.559 106.783,470.392 104.5,470.5C 103.896,477.978 99.8962,480.811 92.5,479C 91.0692,478.535 89.9025,477.701 89,476.5C 88.5503,474.481 87.717,472.648 86.5,471C 77.735,468.605 74.235,463.105 76,454.5C 81.627,448.951 86.7937,449.451 91.5,456C 94.1667,456.667 96.8333,456.667 99.5,456C 102.197,452.729 101.864,449.729 98.5,447C 92.5424,444.905 86.8757,442.239 81.5,439C 75.036,429.96 74.8693,420.793 81,411.5C 83,410.167 85,408.833 87,407.5C 87.8576,403.763 89.6909,400.763 92.5,398.5 Z"/></g>
<g><path style="opacity:0.934" fill="#000000" d="M 291.5,421.5 C 303.171,421.333 314.838,421.5 326.5,422C 333.314,424.458 337.147,429.291 338,436.5C 338.667,446.167 338.667,455.833 338,465.5C 337.116,472.049 333.616,476.549 327.5,479C 315.167,479.667 302.833,479.667 290.5,479C 284.798,476.635 281.298,472.469 280,466.5C 279.333,455.833 279.333,445.167 280,434.5C 281.617,428.058 285.45,423.725 291.5,421.5 Z M 295.5,437.5 C 295.5,446.167 295.5,454.833 295.5,463.5C 304.167,463.5 312.833,463.5 321.5,463.5C 322.752,454.766 322.752,446.266 321.5,438C 312.84,437.5 304.173,437.334 295.5,437.5 Z"/></g>
<g><path style="opacity:0.939" fill="#000000" d="M 359.5,421.5 C 370.838,421.333 382.172,421.5 393.5,422C 399.236,423.402 403.069,426.902 405,432.5C 405.667,444.5 405.667,456.5 405,468.5C 403.5,474 400,477.5 394.5,479C 382.5,479.667 370.5,479.667 358.5,479C 353.243,476.744 349.743,472.91 348,467.5C 347.333,456.167 347.333,444.833 348,433.5C 350.019,427.65 353.852,423.65 359.5,421.5 Z M 363.5,437.5 C 363.5,446.167 363.5,454.833 363.5,463.5C 372.167,463.5 380.833,463.5 389.5,463.5C 389.5,454.833 389.5,446.167 389.5,437.5C 380.833,437.5 372.167,437.5 363.5,437.5 Z"/></g>
</svg>
