<?xml version="1.0" encoding="UTF-8"?>
<!DOCTYPE svg PUBLIC "-//W3C//DTD SVG 1.1//EN" "http://www.w3.org/Graphics/SVG/1.1/DTD/svg11.dtd">
<svg xmlns="http://www.w3.org/2000/svg" version="1.1" width="512px" height="512px" style="shape-rendering:geometricPrecision; text-rendering:geometricPrecision; image-rendering:optimizeQuality; fill-rule:evenodd; clip-rule:evenodd" xmlns:xlink="http://www.w3.org/1999/xlink">
<g><path style="opacity:0.94" fill="#000000" d="M 130.5,38.5 C 168.996,37.1647 202.996,48.6647 232.5,73C 238.406,76.6408 240.573,81.8075 239,88.5C 231.985,95.3477 225.152,102.348 218.5,109.5C 240.48,135.314 262.646,160.981 285,186.5C 287.723,189.557 290.056,192.89 292,196.5C 291.64,221.384 279.806,238.217 256.5,247C 229.718,253.021 209.551,244.188 196,220.5C 194.316,216.284 193.149,211.951 192.5,207.5C 180.149,207.168 167.815,207.501 155.5,208.5C 158.191,221.219 164.025,232.219 173,241.5C 187.22,254.355 201.72,266.855 216.5,279C 222.042,284.375 227.376,289.875 232.5,295.5C 263.259,280.621 293.926,265.454 324.5,250C 327.303,249.245 329.97,249.578 332.5,251C 340.333,258.833 348.167,266.667 356,274.5C 385.079,258.045 413.913,241.212 442.5,224C 435.645,223.759 431.312,220.425 429.5,214C 430.848,207.327 434.848,204.661 441.5,206C 451.224,208.464 460.891,211.13 470.5,214C 472.764,215.779 474.097,218.113 474.5,221C 471.9,231.566 469.067,242.066 466,252.5C 461.357,257.453 456.357,257.787 451,253.5C 450.399,251.863 449.899,250.197 449.5,248.5C 450.501,245.518 451.001,242.518 451,239.5C 421.582,256.793 392.082,273.96 362.5,291C 357.994,293.814 353.327,294.147 348.5,292C 340.625,284.292 332.958,276.459 325.5,268.5C 297.833,282.333 270.167,296.167 242.5,310C 254.639,329.376 261.139,350.543 262,373.5C 262.333,355.5 262.667,337.5 263,319.5C 264.167,318.333 265.333,317.167 266.5,316C 284.833,315.333 303.167,315.333 321.5,316C 322.667,317.167 323.833,318.333 325,319.5C 325.5,364.832 325.667,410.165 325.5,455.5C 330.5,455.5 335.5,455.5 340.5,455.5C 340.333,418.165 340.5,380.832 341,343.5C 341.774,341.061 343.274,339.227 345.5,338C 363.5,337.333 381.5,337.333 399.5,338C 401.726,339.227 403.226,341.061 404,343.5C 404.5,380.832 404.667,418.165 404.5,455.5C 409.5,455.5 414.5,455.5 419.5,455.5C 419.333,395.166 419.5,334.832 420,274.5C 421.214,272.951 422.714,271.785 424.5,271C 442.167,270.333 459.833,270.333 477.5,271C 479.667,271.833 481.167,273.333 482,275.5C 482.5,335.499 482.667,395.499 482.5,455.5C 486.514,455.334 490.514,455.501 494.5,456C 499.453,460.643 499.787,465.643 495.5,471C 494.5,471.333 493.5,471.667 492.5,472C 334.5,472.667 176.5,472.667 18.5,472C 15.7683,471.602 13.935,470.102 13,467.5C 12.3333,448.5 12.3333,429.5 13,410.5C 16.0403,407.034 19.8736,405.7 24.5,406.5C 24.0828,397.085 24.5828,387.752 26,378.5C 27.214,376.951 28.714,375.785 30.5,375C 35.6353,375.08 40.4686,374.247 45,372.5C 54.1498,348.132 56.8165,323.132 53,297.5C 50.7764,287.151 46.4431,277.818 40,269.5C 32.4862,261.449 24.4862,254.115 16,247.5C 15.3333,214.5 15.3333,181.5 16,148.5C 23.9759,96.3716 52.8092,61.5383 102.5,44C 111.829,41.3938 121.162,39.5605 130.5,38.5 Z M 131.5,55.5 C 164.332,54.2772 193.332,63.9438 218.5,84.5C 214.833,88.8333 210.833,92.8333 206.5,96.5C 176.658,74.8041 143.991,68.9708 108.5,79C 78.1804,91.3258 59.3471,113.493 52,145.5C 50.7126,181.804 50.0459,218.137 50,254.5C 44.7088,249.03 39.0421,244.03 33,239.5C 32.3333,209.5 32.3333,179.5 33,149.5C 43.6068,94.7238 76.4401,63.3904 131.5,55.5 Z M 135.5,90.5 C 158.152,90.6615 178.485,97.4948 196.5,111C 222.333,140.833 248.167,170.667 274,200.5C 272.151,219.683 261.484,230.35 242,232.5C 220.583,229.417 209.25,217.084 208,195.5C 207.167,193.333 205.667,191.833 203.5,191C 182.167,190.667 160.833,190.333 139.5,190C 120.869,185.613 111.036,173.78 110,154.5C 108.976,150.32 106.31,148.32 102,148.5C 95.3537,149.099 92.5203,152.766 93.5,159.5C 95.4118,182.152 107.078,197.318 128.5,205C 131.757,206.043 135.09,206.543 138.5,206.5C 139.716,220.589 144.549,233.256 153,244.5C 167.582,260.418 183.416,274.918 200.5,288C 205.682,293.015 210.682,298.181 215.5,303.5C 208.253,307.373 201.086,311.373 194,315.5C 190.447,325.574 193.947,330.074 204.5,329C 212.078,325.294 219.578,321.461 227,317.5C 238.241,334.789 244.075,353.789 244.5,374.5C 183.83,374.833 123.163,374.5 62.5,373.5C 72.8064,345.314 74.6397,316.647 68,287.5C 67.3333,242.833 67.3333,198.167 68,153.5C 75.5977,116.399 98.0977,95.3987 135.5,90.5 Z M 436.5,287.5 C 446.167,287.5 455.833,287.5 465.5,287.5C 465.5,343.5 465.5,399.5 465.5,455.5C 455.833,455.5 446.167,455.5 436.5,455.5C 436.5,399.5 436.5,343.5 436.5,287.5 Z M 279.5,332.5 C 289.167,332.5 298.833,332.5 308.5,332.5C 308.5,373.5 308.5,414.5 308.5,455.5C 298.833,455.5 289.167,455.5 279.5,455.5C 279.5,414.5 279.5,373.5 279.5,332.5 Z M 357.5,354.5 C 367.5,354.5 377.5,354.5 387.5,354.5C 387.5,388.167 387.5,421.833 387.5,455.5C 377.5,455.5 367.5,455.5 357.5,455.5C 357.5,421.833 357.5,388.167 357.5,354.5 Z M 41.5,391.5 C 88.8333,391.5 136.167,391.5 183.5,391.5C 183.5,396.5 183.5,401.5 183.5,406.5C 136.167,406.5 88.8333,406.5 41.5,406.5C 41.5,401.5 41.5,396.5 41.5,391.5 Z M 200.5,391.5 C 210.5,391.5 220.5,391.5 230.5,391.5C 230.5,412.833 230.5,434.167 230.5,455.5C 220.5,455.5 210.5,455.5 200.5,455.5C 200.5,434.167 200.5,412.833 200.5,391.5 Z M 247.5,391.5 C 252.5,391.5 257.5,391.5 262.5,391.5C 262.5,396.5 262.5,401.5 262.5,406.5C 257.5,406.5 252.5,406.5 247.5,406.5C 247.5,401.5 247.5,396.5 247.5,391.5 Z M 28.5,423.5 C 80.1667,423.5 131.833,423.5 183.5,423.5C 183.5,434.167 183.5,444.833 183.5,455.5C 131.833,455.5 80.1667,455.5 28.5,455.5C 28.5,444.833 28.5,434.167 28.5,423.5 Z M 247.5,423.5 C 252.5,423.5 257.5,423.5 262.5,423.5C 262.5,434.167 262.5,444.833 262.5,455.5C 257.5,455.5 252.5,455.5 247.5,455.5C 247.5,444.833 247.5,434.167 247.5,423.5 Z"/></g>
<g><path style="opacity:0.929" fill="#000000" d="M 381.5,38.5 C 389.84,38.3336 398.173,38.5003 406.5,39C 408.081,39.7065 409.581,40.5399 411,41.5C 413.333,46.5 415.667,51.5 418,56.5C 421,57.8333 424,59.1667 427,60.5C 432.333,58.0857 437.833,56.0857 443.5,54.5C 445.541,55.2357 447.541,56.0691 449.5,57C 455.742,62.5714 461.242,68.738 466,75.5C 466.667,77.1667 466.667,78.8333 466,80.5C 464.496,85.0133 462.996,89.5133 461.5,94C 462.003,97.0088 463.003,99.8422 464.5,102.5C 469.675,105.588 475.008,108.421 480.5,111C 481.126,111.75 481.626,112.584 482,113.5C 482.667,122.833 482.667,132.167 482,141.5C 481.07,143.552 479.57,145.052 477.5,146C 473.381,147.559 469.381,149.393 465.5,151.5C 462.603,155.021 461.437,159.021 462,163.5C 463.9,167.866 465.4,172.366 466.5,177C 466.091,179.321 465.257,181.487 464,183.5C 459.167,188.333 454.333,193.167 449.5,198C 447.541,198.931 445.541,199.764 443.5,200.5C 437.833,198.914 432.333,196.914 427,194.5C 424.239,195.796 421.405,196.963 418.5,198C 415.811,203.063 413.311,208.229 411,213.5C 409.581,214.46 408.081,215.293 406.5,216C 397.091,216.917 387.758,216.584 378.5,215C 375.115,209.731 372.115,204.231 369.5,198.5C 366.618,196.892 363.618,195.559 360.5,194.5C 355.233,196.7 349.9,198.7 344.5,200.5C 335.634,195.473 328.134,188.807 322,180.5C 321.333,178.167 321.333,175.833 322,173.5C 323.503,169.162 325.003,164.828 326.5,160.5C 325.641,157.949 324.641,155.449 323.5,153C 318.973,149.568 313.973,146.901 308.5,145C 307.299,144.097 306.465,142.931 306,141.5C 305.333,132.167 305.333,122.833 306,113.5C 306.465,112.069 307.299,110.903 308.5,110C 313.287,108.107 317.953,105.94 322.5,103.5C 324.106,100.622 325.439,97.6215 326.5,94.5C 325.003,90.1716 323.503,85.8382 322,81.5C 321.21,78.366 321.543,75.366 323,72.5C 328.167,67.3333 333.333,62.1667 338.5,57C 340.459,56.0691 342.459,55.2357 344.5,54.5C 349.9,56.3002 355.233,58.3002 360.5,60.5C 363.618,59.4413 366.618,58.1079 369.5,56.5C 371.996,51.5089 374.496,46.5089 377,41.5C 378.409,40.2189 379.909,39.2189 381.5,38.5 Z M 389.5,55.5 C 392.518,55.3354 395.518,55.502 398.5,56C 400.481,61.6306 403.481,66.6306 407.5,71C 413.794,73.598 420.127,76.098 426.5,78.5C 431.574,76.8607 436.574,75.3607 441.5,74C 443.888,76.0505 445.888,78.3838 447.5,81C 445.853,85.4367 444.52,89.9367 443.5,94.5C 445.193,102.75 448.526,110.25 453.5,117C 457.167,118.833 460.833,120.667 464.5,122.5C 465.657,125.784 465.824,129.118 465,132.5C 461.121,134.189 457.288,136.022 453.5,138C 451.383,139.731 449.883,141.898 449,144.5C 446.462,149.615 444.629,154.948 443.5,160.5C 444.52,165.063 445.853,169.563 447.5,174C 445.888,176.616 443.888,178.95 441.5,181C 436.574,179.639 431.574,178.139 426.5,176.5C 418.226,178.748 410.726,182.415 404,187.5C 402.356,191.437 400.523,195.27 398.5,199C 395.183,199.498 391.85,199.665 388.5,199.5C 387.113,194.226 384.78,189.393 381.5,185C 374.813,181.738 367.98,178.904 361,176.5C 356.412,177.863 351.912,179.53 347.5,181.5C 345.183,179.684 343.016,177.684 341,175.5C 341.525,170.416 342.692,165.416 344.5,160.5C 342.301,153.74 339.801,147.073 337,140.5C 333.032,137.098 328.532,134.598 323.5,133C 322.167,129.333 322.167,125.667 323.5,122C 328.532,120.402 333.032,117.902 337,114.5C 339.801,107.927 342.301,101.26 344.5,94.5C 342.692,89.5837 341.525,84.5837 341,79.5C 343.016,77.316 345.183,75.316 347.5,73.5C 351.884,75.4616 356.384,77.1283 361,78.5C 367.555,76.1388 374.055,73.6388 380.5,71C 384.143,66.2153 387.143,61.0486 389.5,55.5 Z M 390.5,108.5 C 405.974,109.138 413.141,117.138 412,132.5C 406.006,145.719 396.506,149.219 383.5,143C 375.09,135.966 373.256,127.466 378,117.5C 381.299,113.118 385.466,110.118 390.5,108.5 Z"/></g>
<g><path style="opacity:0.928" fill="#000000" d="M 389.5,91.5 C 413.945,91.2823 427.278,103.282 429.5,127.5C 427.927,149.573 416.094,161.573 394,163.5C 368.034,160.243 356.367,145.576 359,119.5C 363.311,103.686 373.477,94.3524 389.5,91.5 Z M 390.5,108.5 C 385.466,110.118 381.299,113.118 378,117.5C 373.256,127.466 375.09,135.966 383.5,143C 396.506,149.219 406.006,145.719 412,132.5C 413.141,117.138 405.974,109.138 390.5,108.5 Z"/></g>
</svg>
