<?xml version="1.0" encoding="UTF-8"?>
<!DOCTYPE svg PUBLIC "-//W3C//DTD SVG 1.1//EN" "http://www.w3.org/Graphics/SVG/1.1/DTD/svg11.dtd">
<svg xmlns="http://www.w3.org/2000/svg" version="1.1" width="512px" height="512px" style="shape-rendering:geometricPrecision; text-rendering:geometricPrecision; image-rendering:optimizeQuality; fill-rule:evenodd; clip-rule:evenodd" xmlns:xlink="http://www.w3.org/1999/xlink">
<g><path style="opacity:0.927" fill="#000000" d="M 109.5,14.5 C 114.421,14.0429 117.921,16.0429 120,20.5C 120.667,36.1667 120.667,51.8333 120,67.5C 118.833,68.6667 117.667,69.8333 116.5,71C 88.4535,79.9145 73.4535,99.0811 71.5,128.5C 73.3473,157.379 88.014,176.212 115.5,185C 117.333,186.167 118.833,187.667 120,189.5C 120.667,205.5 120.667,221.5 120,237.5C 118.471,240.934 115.804,242.6 112,242.5C 69.3372,234.841 39.3372,211.174 22,171.5C 5.471,122.46 15.3043,79.6264 51.5,43C 68.3555,28.4054 87.6888,18.9054 109.5,14.5 Z M 102.5,32.5 C 103.825,36.2762 104.491,40.4428 104.5,45C 104.333,49.1667 104.167,53.3333 104,57.5C 73.0638,70.7831 56.5638,94.2831 54.5,128C 56.3966,161.653 72.7299,185.153 103.5,198.5C 104.833,207.167 104.833,215.833 103.5,224.5C 57.2224,209.218 32.8891,177.218 30.5,128.5C 31.8576,88.6823 49.8576,59.1823 84.5,40C 90.4788,37.1816 96.4788,34.6816 102.5,32.5 Z"/></g>
<g><path style="opacity:0.925" fill="#000000" d="M 145.5,14.5 C 189.91,22.0816 220.91,46.5816 238.5,88C 240.976,95.2422 242.976,102.576 244.5,110C 244.042,112.831 242.708,115.164 240.5,117C 232.072,118.122 223.572,118.622 215,118.5C 206.428,118.622 197.928,118.122 189.5,117C 188.667,116.167 187.833,115.333 187,114.5C 183.422,101.594 176.589,90.7604 166.5,82C 158.119,76.5597 149.286,72.0597 140,68.5C 139.333,51.8333 139.333,35.1667 140,18.5C 141.5,16.5313 143.333,15.198 145.5,14.5 Z M 155.5,32.5 C 190.943,43.4428 214.276,66.6095 225.5,102C 216.833,102.667 208.167,102.667 199.5,102C 190.916,81.2492 176.25,66.7492 155.5,58.5C 155.5,49.8333 155.5,41.1667 155.5,32.5 Z"/></g>
<g><path style="opacity:0.926" fill="#000000" d="M 305.5,29.5 C 330.836,29.3334 356.169,29.5 381.5,30C 384.366,31.3929 385.699,33.7262 385.5,37C 385.666,41.3484 383.666,44.015 379.5,45C 355.5,45.6667 331.5,45.6667 307.5,45C 303.376,44.0183 301.376,41.3516 301.5,37C 301.927,33.9766 303.261,31.4766 305.5,29.5 Z"/></g>
<g><path style="opacity:0.93" fill="#000000" d="M 404.5,29.5 C 426.836,29.3334 449.169,29.5 471.5,30C 473.333,30.5 474.5,31.6667 475,33.5C 476.992,39.3373 475.158,43.1706 469.5,45C 448.5,45.6667 427.5,45.6667 406.5,45C 402.334,44.015 400.334,41.3484 400.5,37C 400.43,33.6335 401.763,31.1335 404.5,29.5 Z"/></g>
<g><path style="opacity:0.911" fill="#000000" d="M 305.5,68.5 C 316.838,68.3335 328.172,68.5001 339.5,69C 344.343,73.3796 344.677,78.0462 340.5,83C 329.573,84.5975 318.573,84.9308 307.5,84C 300.406,79.693 299.74,74.5264 305.5,68.5 Z"/></g>
<g><path style="opacity:0.933" fill="#000000" d="M 358.5,68.5 C 396.168,68.3333 433.835,68.5 471.5,69C 474.516,70.5286 475.849,73.0286 475.5,76.5C 475.664,80.1774 473.997,82.6774 470.5,84C 433.5,84.6667 396.5,84.6667 359.5,84C 354.931,81.4586 353.431,77.6253 355,72.5C 356.376,71.2949 357.542,69.9616 358.5,68.5 Z"/></g>
<g><path style="opacity:0.931" fill="#000000" d="M 306.5,107.5 C 341.502,107.333 376.502,107.5 411.5,108C 415.277,110.955 416.443,114.788 415,119.5C 413.786,121.049 412.286,122.215 410.5,123C 375.833,123.667 341.167,123.667 306.5,123C 301.465,119.987 300.298,115.82 303,110.5C 304.145,109.364 305.312,108.364 306.5,107.5 Z"/></g>
<g><path style="opacity:0.919" fill="#000000" d="M 427.5,107.5 C 442.17,107.333 456.837,107.5 471.5,108C 475.212,110.513 476.378,114.013 475,118.5C 474.167,120.667 472.667,122.167 470.5,123C 456.167,123.667 441.833,123.667 427.5,123C 424.334,121.56 422.667,119.06 422.5,115.5C 422.727,111.819 424.393,109.152 427.5,107.5 Z"/></g>
<g><path style="opacity:0.924" fill="#000000" d="M 190.5,138.5 C 206.837,138.333 223.17,138.5 239.5,139C 241.972,140.798 243.639,143.132 244.5,146C 235.884,191.559 209.884,222.559 166.5,239C 160.245,240.818 153.912,242.318 147.5,243.5C 144.421,243.2 141.921,241.867 140,239.5C 139.333,223.167 139.333,206.833 140,190.5C 140.707,188.919 141.54,187.419 142.5,186C 165.594,179.906 180.427,165.406 187,142.5C 188.376,141.295 189.542,139.962 190.5,138.5 Z M 199.5,155.5 C 208.173,155.334 216.84,155.5 225.5,156C 214.333,191.167 191.167,214.333 156,225.5C 155.333,216.833 155.333,208.167 156,199.5C 176.72,190.947 191.22,176.281 199.5,155.5 Z"/></g>
<g><path style="opacity:0.929" fill="#000000" d="M 340.5,149.5 C 356.428,148.374 367.595,155.041 374,169.5C 375.485,176.524 375.985,183.524 375.5,190.5C 388.5,199 401.5,207.5 414.5,216C 415.5,216.667 416.5,216.667 417.5,216C 430.683,207.212 443.683,207.545 456.5,217C 466.144,226.742 468.977,238.242 465,251.5C 456.333,268.415 442.833,274.248 424.5,269C 408.596,260.692 402.93,247.859 407.5,230.5C 394.061,220.894 380.228,211.894 366,203.5C 356.696,209.606 346.696,211.273 336,208.5C 334.395,209.101 333.062,210.101 332,211.5C 314.553,235.948 296.719,260.115 278.5,284C 288.449,298.787 287.449,312.787 275.5,326C 259.348,337.168 244.514,335.668 231,321.5C 227.66,316.811 225.493,311.644 224.5,306C 214.302,303.828 204.136,301.661 194,299.5C 182.65,320.397 166.65,325.063 146,313.5C 131.333,328.167 116.667,342.833 102,357.5C 108.786,373.562 105.62,387.396 92.5,399C 77.2404,407.528 63.4071,405.694 51,393.5C 40.5581,376.489 42.7247,361.322 57.5,348C 64.9953,343.843 72.9953,342.509 81.5,344C 84.5046,345.354 87.5046,346.354 90.5,347C 104.637,331.862 119.137,317.029 134,302.5C 129.638,282.048 137.138,268.214 156.5,261C 169.863,258.675 180.696,262.842 189,273.5C 190.773,277.387 192.773,281.053 195,284.5C 205.213,286.309 215.379,288.309 225.5,290.5C 234.786,275.348 247.953,270.348 265,275.5C 283.333,250.5 301.667,225.5 320,200.5C 320.667,199.5 320.667,198.5 320,197.5C 311.6,182.898 313.1,169.398 324.5,157C 329.286,153.104 334.619,150.604 340.5,149.5 Z M 344.5,164.5 C 358.303,166.777 362.803,174.444 358,187.5C 349.955,196.761 341.955,196.761 334,187.5C 329.367,176.1 332.867,168.433 344.5,164.5 Z M 431.5,225.5 C 446.328,225.154 452.162,232.154 449,246.5C 441.068,256.619 432.735,256.952 424,247.5C 419.631,237.772 422.131,230.438 431.5,225.5 Z M 161.5,275.5 C 174.471,275.303 180.304,281.636 179,294.5C 172.604,305.759 164.27,307.425 154,299.5C 148.353,288.941 150.853,280.941 161.5,275.5 Z M 250.5,289.5 C 261.307,288.313 267.974,292.98 270.5,303.5C 267.92,315.113 260.92,319.613 249.5,317C 237.561,307.381 237.894,298.215 250.5,289.5 Z M 70.5,359.5 C 82.986,358.491 89.1527,364.157 89,376.5C 84.3086,388.064 76.4753,390.897 65.5,385C 57.6347,374.613 59.3014,366.113 70.5,359.5 Z"/></g>
<g><path style="opacity:0.941" fill="#000000" d="M 321.5,267.5 C 337.837,267.333 354.17,267.5 370.5,268C 373.232,268.398 375.065,269.898 376,272.5C 376.5,341.833 376.667,411.166 376.5,480.5C 385.833,480.5 395.167,480.5 404.5,480.5C 404.333,427.166 404.5,373.832 405,320.5C 405.398,317.768 406.898,315.935 409.5,315C 427.167,314.333 444.833,314.333 462.5,315C 464,315.833 465.167,317 466,318.5C 466.5,372.499 466.667,426.499 466.5,480.5C 475.506,480.334 484.506,480.5 493.5,481C 496.428,484.257 497.262,488.091 496,492.5C 494.786,494.049 493.286,495.215 491.5,496C 334.167,496.667 176.833,496.667 19.5,496C 17.714,495.215 16.214,494.049 15,492.5C 13.7382,488.091 14.5715,484.257 17.5,481C 26.4938,480.5 35.4938,480.334 44.5,480.5C 44.0259,461.74 44.5259,443.073 46,424.5C 46.7504,423.874 47.5838,423.374 48.5,423C 66.5,422.333 84.5,422.333 102.5,423C 103.333,423.833 104.167,424.667 105,425.5C 106.461,443.765 106.961,462.098 106.5,480.5C 115.833,480.5 125.167,480.5 134.5,480.5C 134.333,443.165 134.5,405.832 135,368.5C 135.833,367 137,365.833 138.5,365C 156.167,364.333 173.833,364.333 191.5,365C 193.333,365.5 194.5,366.667 195,368.5C 195.5,405.832 195.667,443.165 195.5,480.5C 205.167,480.5 214.833,480.5 224.5,480.5C 224.333,447.498 224.5,414.498 225,381.5C 225.398,378.768 226.898,376.935 229.5,376C 246.833,375.333 264.167,375.333 281.5,376C 284.102,376.935 285.602,378.768 286,381.5C 286.5,414.498 286.667,447.498 286.5,480.5C 296.167,480.5 305.833,480.5 315.5,480.5C 315.333,467.496 315.5,454.496 316,441.5C 317.529,438.484 320.029,437.151 323.5,437.5C 327.177,437.336 329.677,439.003 331,442.5C 331.5,455.162 331.667,467.829 331.5,480.5C 341.167,480.5 350.833,480.5 360.5,480.5C 360.5,414.833 360.5,349.167 360.5,283.5C 350.833,283.5 341.167,283.5 331.5,283.5C 331.667,325.168 331.5,366.835 331,408.5C 326.821,415.338 321.821,416.004 316,410.5C 315.333,364.167 315.333,317.833 316,271.5C 317.5,269.531 319.333,268.198 321.5,267.5 Z M 420.5,330.5 C 430.5,330.5 440.5,330.5 450.5,330.5C 450.5,380.5 450.5,430.5 450.5,480.5C 440.5,480.5 430.5,480.5 420.5,480.5C 420.5,430.5 420.5,380.5 420.5,330.5 Z M 150.5,380.5 C 160.167,380.5 169.833,380.5 179.5,380.5C 179.5,413.833 179.5,447.167 179.5,480.5C 169.833,480.5 160.167,480.5 150.5,480.5C 150.5,447.167 150.5,413.833 150.5,380.5 Z M 240.5,391.5 C 250.5,391.5 260.5,391.5 270.5,391.5C 270.5,421.167 270.5,450.833 270.5,480.5C 260.5,480.5 250.5,480.5 240.5,480.5C 240.5,450.833 240.5,421.167 240.5,391.5 Z M 60.5,438.5 C 70.5,438.5 80.5,438.5 90.5,438.5C 90.5,452.5 90.5,466.5 90.5,480.5C 80.5,480.5 70.5,480.5 60.5,480.5C 60.5,466.5 60.5,452.5 60.5,438.5 Z"/></g>
</svg>
