<?xml version="1.0" encoding="UTF-8"?>
<!DOCTYPE svg PUBLIC "-//W3C//DTD SVG 1.1//EN" "http://www.w3.org/Graphics/SVG/1.1/DTD/svg11.dtd">
<svg xmlns="http://www.w3.org/2000/svg" version="1.1" width="512px" height="512px" style="shape-rendering:geometricPrecision; text-rendering:geometricPrecision; image-rendering:optimizeQuality; fill-rule:evenodd; clip-rule:evenodd" xmlns:xlink="http://www.w3.org/1999/xlink">
<g><path style="opacity:0.901" fill="#000000" d="M 121.5,8.5 C 124.862,8.06952 127.695,9.06952 130,11.5C 130.667,19.8333 130.667,28.1667 130,36.5C 124.785,41.0192 120.451,40.3525 117,34.5C 116.333,27.5 116.333,20.5 117,13.5C 118.025,11.313 119.525,9.64638 121.5,8.5 Z"/></g>
<g><path style="opacity:0.873" fill="#000000" d="M 46.5,32.5 C 49.4245,32.4598 52.0912,33.2932 54.5,35C 58.3333,38.8333 62.1667,42.6667 66,46.5C 69.4162,55.7513 66.2495,59.5846 56.5,58C 52,53.5 47.5,49 43,44.5C 40.4576,39.3612 41.6243,35.3612 46.5,32.5 Z"/></g>
<g><path style="opacity:0.867" fill="#000000" d="M 196.5,32.5 C 205.747,32.9969 208.247,37.3302 204,45.5C 200.167,49.3333 196.333,53.1667 192.5,57C 182.76,60.5814 178.927,57.4147 181,47.5C 186.062,42.2694 191.229,37.2694 196.5,32.5 Z"/></g>
<g><path style="opacity:0.925" fill="#000000" d="M 111.5,49.5 C 143.961,45.8252 169.461,57.1585 188,83.5C 195.155,97.6884 197.488,112.688 195,128.5C 193.654,138.536 190.321,147.87 185,156.5C 177.943,165.892 171.276,175.558 165,185.5C 163.967,194.485 162.967,203.485 162,212.5C 159.887,216.558 156.554,218.891 152,219.5C 150.597,232.9 143.431,241.4 130.5,245C 110.334,247.328 98.6669,238.495 95.5,218.5C 91.452,218.559 88.2854,216.892 86,213.5C 84.76,205.243 84.0933,196.909 84,188.5C 77.7826,177.62 70.7826,167.286 63,157.5C 48.9064,132.431 48.2397,107.097 61,81.5C 73.5616,64.1074 90.395,53.4407 111.5,49.5 Z M 115.5,63.5 C 138.055,61.536 156.888,68.8694 172,85.5C 182.79,102.863 184.457,121.196 177,140.5C 175.667,143.167 174.333,145.833 173,148.5C 166.446,156.72 160.28,165.22 154.5,174C 151.854,174.497 149.187,174.664 146.5,174.5C 145.311,161.193 144.311,147.86 143.5,134.5C 163.61,134.225 171.776,124.225 168,104.5C 160.536,90.6813 150.036,87.8479 136.5,96C 131.338,103.319 128.672,111.485 128.5,120.5C 125.223,120.784 122.057,120.451 119,119.5C 119.388,109.317 115.888,100.817 108.5,94C 97.2413,88.9768 88.0746,91.4768 81,101.5C 74.6323,122.631 82.4657,133.631 104.5,134.5C 103.5,147.833 102.5,161.167 101.5,174.5C 98.4281,174.817 95.4281,174.484 92.5,173.5C 86.5789,164.657 80.4122,155.991 74,147.5C 66.3592,132.427 64.3592,116.761 68,100.5C 77.0599,79.3956 92.8932,67.0622 115.5,63.5 Z M 96.5,105.5 C 98.1439,105.286 99.6439,105.62 101,106.5C 103.706,110.785 104.873,115.452 104.5,120.5C 92.7067,120.07 90.0401,115.07 96.5,105.5 Z M 147.5,105.5 C 152.436,105.769 155.103,108.436 155.5,113.5C 152.978,119.18 148.644,121.346 142.5,120C 142.878,114.7 144.544,109.867 147.5,105.5 Z M 118.5,134.5 C 122.167,134.5 125.833,134.5 129.5,134.5C 130.262,147.828 130.928,161.162 131.5,174.5C 126.167,174.5 120.833,174.5 115.5,174.5C 116.783,161.2 117.783,147.867 118.5,134.5 Z M 98.5,188.5 C 115.167,188.5 131.833,188.5 148.5,188.5C 148.5,193.833 148.5,199.167 148.5,204.5C 131.833,204.5 115.167,204.5 98.5,204.5C 98.5,199.167 98.5,193.833 98.5,188.5 Z M 110.5,218.5 C 119.5,218.5 128.5,218.5 137.5,218.5C 136.79,226.709 132.29,231.043 124,231.5C 115.71,231.043 111.21,226.709 110.5,218.5 Z"/></g>
<g><path style="opacity:0.89" fill="#000000" d="M 221.5,152.5 C 285.168,152.333 348.834,152.5 412.5,153C 425.464,154.964 432.631,162.464 434,175.5C 434.667,209.5 434.667,243.5 434,277.5C 433.493,288.009 428.327,295.176 418.5,299C 411.885,300.108 405.218,300.775 398.5,301C 401,302.833 403.5,304.667 406,306.5C 409.167,316.667 405.667,320.167 395.5,317C 387.5,311 379.5,305 371.5,299C 367.5,295 367.5,291 371.5,287C 380.167,280.667 388.833,274.333 397.5,268C 406.062,267.565 408.895,271.398 406,279.5C 403.167,281.667 400.333,283.833 397.5,286C 403.237,286.789 408.903,286.456 414.5,285C 416.667,284.167 418.167,282.667 419,280.5C 419.667,244.5 419.667,208.5 419,172.5C 418.535,171.069 417.701,169.903 416.5,169C 351.582,167.674 286.582,167.007 221.5,167C 215.661,165.163 213.995,161.33 216.5,155.5C 218.145,154.304 219.811,153.304 221.5,152.5 Z"/></g>
<g><path style="opacity:0.924" fill="#000000" d="M 259.5,193.5 C 263.511,193.502 267.178,194.668 270.5,197C 295.833,211.667 321.167,226.333 346.5,241C 347.893,242.171 348.727,243.671 349,245.5C 349.985,278.252 349.652,310.919 348,343.5C 320.067,361.095 291.4,377.429 262,392.5C 233.651,377.073 205.485,361.24 177.5,345C 176.874,344.25 176.374,343.416 176,342.5C 175.174,309.125 175.341,275.792 176.5,242.5C 204.065,225.888 231.732,209.555 259.5,193.5 Z M 260.5,209.5 C 263.016,209.755 265.35,210.589 267.5,212C 287.5,223.667 307.5,235.333 327.5,247C 306.833,259 286.167,271 265.5,283C 263.956,284.187 262.289,284.52 260.5,284C 239.425,271.267 218.092,258.934 196.5,247C 218.061,234.726 239.394,222.226 260.5,209.5 Z M 189.5,259.5 C 211.388,272.029 233.221,284.695 255,297.5C 255.833,322.507 255.666,347.507 254.5,372.5C 233.167,360.167 211.833,347.833 190.5,335.5C 189.5,310.175 189.167,284.842 189.5,259.5 Z M 333.5,259.5 C 334.832,271.648 335.499,284.148 335.5,297C 335.333,309.5 335.167,322 335,334.5C 313.593,347.566 291.926,360.232 270,372.5C 269.167,347.16 269.334,321.827 270.5,296.5C 291.728,284.392 312.728,272.059 333.5,259.5 Z"/></g>
<g><path style="opacity:0.933" fill="#000000" d="M 121.5,267.5 C 123.989,267.298 126.323,267.798 128.5,269C 137,275.5 145.5,282 154,288.5C 156.54,293.097 155.707,296.93 151.5,300C 143.343,306.245 135.01,312.245 126.5,318C 118.49,318.658 115.657,315.158 118,307.5C 120.22,304.979 122.72,302.812 125.5,301C 120.167,300.333 114.833,300.333 109.5,301C 107.622,302.543 106.122,304.376 105,306.5C 104.333,341.833 104.333,377.167 105,412.5C 106.122,414.624 107.622,416.457 109.5,418C 175.122,419.319 240.789,419.986 306.5,420C 310.875,425.121 310.209,429.455 304.5,433C 239.833,433.667 175.167,433.667 110.5,433C 100.206,431.372 93.7062,425.539 91,415.5C 90.3333,378.167 90.3333,340.833 91,303.5C 92.6058,296.231 96.7725,291.065 103.5,288C 111.089,286.769 118.756,286.103 126.5,286C 122.667,283.5 119.5,280.333 117,276.5C 116.377,272.412 117.877,269.412 121.5,267.5 Z"/></g>
<g><path style="opacity:0.916" fill="#000000" d="M 391.5,349.5 C 399.206,348.665 406.539,349.831 413.5,353C 416.694,357.737 419.027,362.904 420.5,368.5C 426.296,370.898 431.63,374.064 436.5,378C 441.018,378.033 445.518,377.533 450,376.5C 453.012,376.726 455.845,377.559 458.5,379C 464.008,384.686 467.675,391.352 469.5,399C 468.477,405.7 465.31,411.2 460,415.5C 459.333,422.5 459.333,429.5 460,436.5C 461.961,439.463 464.294,442.129 467,444.5C 469.789,449.348 470.122,454.348 468,459.5C 465.664,464.175 462.831,468.508 459.5,472.5C 458.088,473.806 456.421,474.64 454.5,475C 448.427,475.314 442.427,474.98 436.5,474C 431.997,477.755 426.997,480.755 421.5,483C 419.413,487.807 417.246,492.64 415,497.5C 413.048,499.894 410.548,501.394 407.5,502C 399.955,503.126 392.621,502.46 385.5,500C 384.333,498.833 383.167,497.667 382,496.5C 380.333,492.167 378.667,487.833 377,483.5C 371.416,480.961 366.249,477.794 361.5,474C 357.019,474.225 352.519,474.725 348,475.5C 343.8,475.545 340.134,474.212 337,471.5C 332.667,466.003 329.834,459.836 328.5,453C 329.502,446.313 332.669,440.813 338,436.5C 338.667,429.5 338.667,422.5 338,415.5C 326.467,405.892 325.467,395.226 335,383.5C 337.365,380.131 340.532,377.964 344.5,377C 350.196,377.075 355.863,377.408 361.5,378C 365.882,374.14 370.882,371.307 376.5,369.5C 378.372,364.386 380.539,359.386 383,354.5C 385.682,352.415 388.516,350.748 391.5,349.5 Z M 394.5,363.5 C 397.777,363.216 400.943,363.549 404,364.5C 405.491,370.148 407.658,375.481 410.5,380.5C 418.614,383.388 425.947,387.554 432.5,393C 438.503,393.333 444.337,392.499 450,390.5C 451.889,393.112 453.389,395.945 454.5,399C 451.457,402.907 448.291,406.741 445,410.5C 444.833,411.833 444.667,413.167 444.5,414.5C 445.488,423.5 445.654,432.5 445,441.5C 448.131,445.633 451.631,449.466 455.5,453C 453.611,455.959 451.611,458.792 449.5,461.5C 444.899,460.246 440.232,459.246 435.5,458.5C 433.701,458.577 432.034,459.077 430.5,460C 425.162,465.328 418.828,468.995 411.5,471C 407.857,475.908 405.357,481.408 404,487.5C 400.667,488.833 397.333,488.833 394,487.5C 392.604,481.968 390.437,476.801 387.5,472C 379.21,469.192 371.876,464.859 365.5,459C 359.718,458.855 354.051,459.688 348.5,461.5C 346.389,458.792 344.389,455.959 342.5,453C 347.795,448.882 351.461,443.716 353.5,437.5C 352.501,428.834 352.335,420.167 353,411.5C 349.619,407.241 346.119,403.074 342.5,399C 344.458,396.252 346.291,393.418 348,390.5C 353.663,392.499 359.497,393.333 365.5,393C 371.718,387.722 378.718,383.722 386.5,381C 388.049,379.786 389.215,378.286 390,376.5C 391.41,372.101 392.91,367.768 394.5,363.5 Z M 393.5,407.5 C 412.486,406.983 419.986,415.983 416,434.5C 409.035,445.199 399.868,447.699 388.5,442C 377.143,431.963 376.81,421.63 387.5,411C 389.432,409.541 391.432,408.375 393.5,407.5 Z"/></g>
<g><path style="opacity:0.914" fill="#000000" d="M 397.5,392.5 C 424.846,396.196 435.679,411.529 430,438.5C 420.666,456.579 406.166,462.746 386.5,457C 368.421,447.666 362.254,433.166 368,413.5C 373.951,400.949 383.785,393.949 397.5,392.5 Z M 393.5,407.5 C 391.432,408.375 389.432,409.541 387.5,411C 376.81,421.63 377.143,431.963 388.5,442C 399.868,447.699 409.035,445.199 416,434.5C 419.986,415.983 412.486,406.983 393.5,407.5 Z"/></g>
</svg>
