<?xml version="1.0" encoding="UTF-8"?>
<!DOCTYPE svg PUBLIC "-//W3C//DTD SVG 1.1//EN" "http://www.w3.org/Graphics/SVG/1.1/DTD/svg11.dtd">
<svg xmlns="http://www.w3.org/2000/svg" version="1.1" width="512px" height="512px" style="shape-rendering:geometricPrecision; text-rendering:geometricPrecision; image-rendering:optimizeQuality; fill-rule:evenodd; clip-rule:evenodd" xmlns:xlink="http://www.w3.org/1999/xlink">
<g><path style="opacity:0.937" fill="#000000" d="M 406.5,6.5 C 428.327,3.50083 445.16,11.1675 457,29.5C 466.524,50.7009 463.358,69.7009 447.5,86.5C 478.651,100.48 495.484,124.48 498,158.5C 497.215,160.286 496.049,161.786 494.5,163C 442.5,163.667 390.5,163.667 338.5,163C 335.833,161 334.5,158.333 334.5,155C 339.09,122.912 356.09,100.079 385.5,86.5C 368.75,68.3229 366.25,48.3229 378,26.5C 385.232,16.4782 394.732,9.81153 406.5,6.5 Z M 409.5,23.5 C 433.152,21.9898 444.985,32.9898 445,56.5C 440.145,74.665 428.312,82.4983 409.5,80C 394.492,74.8094 387.325,64.3094 388,48.5C 390.733,36.2724 397.9,27.939 409.5,23.5 Z M 415.5,97.5 C 447.462,99.4761 468.795,115.476 479.5,145.5C 437.5,146.833 395.5,146.833 353.5,145.5C 364.025,116.299 384.692,100.299 415.5,97.5 Z"/></g>
<g><path style="opacity:0.934" fill="#000000" d="M 304.5,46.5 C 325.809,47.3062 335.642,58.3062 334,79.5C 328.25,95.9626 316.75,102.463 299.5,99C 297.167,97.8333 294.833,96.6667 292.5,95.5C 280.361,103.806 268.361,112.306 256.5,121C 260.491,129.343 260.491,137.676 256.5,146C 268.244,154.955 280.077,163.788 292,172.5C 306.288,164.343 318.954,166.343 330,178.5C 338.518,194.572 335.351,207.739 320.5,218C 301.818,224.458 288.985,218.624 282,200.5C 281.201,195.913 281.368,191.413 282.5,187C 271.167,178.667 259.833,170.333 248.5,162C 247.5,161.333 246.5,161.333 245.5,162C 231.167,170.667 216.833,170.667 202.5,162C 186.171,146.377 184.338,129.21 197,110.5C 212.444,96.2021 228.944,94.8687 246.5,106.5C 258.305,98.528 269.972,90.3613 281.5,82C 278.903,63.4434 286.57,51.6101 304.5,46.5 Z M 306.5,63.5 C 315.668,64.8166 318.835,69.8166 316,78.5C 310.625,85.1012 305.292,85.1012 300,78.5C 297.247,71.3408 299.414,66.3408 306.5,63.5 Z M 220.5,115.5 C 236.17,116.001 243.003,124.001 241,139.5C 234.548,152.074 225.048,154.908 212.5,148C 203.024,138.03 203.357,128.363 213.5,119C 215.925,117.787 218.259,116.621 220.5,115.5 Z M 305.5,184.5 C 315.416,184.998 318.916,189.998 316,199.5C 312.95,203.13 309.117,204.297 304.5,203C 299.268,200.367 297.435,196.201 299,190.5C 300.494,187.686 302.66,185.686 305.5,184.5 Z"/></g>
<g><path style="opacity:0.935" fill="#000000" d="M 112.5,123.5 C 148.571,121.1 171.738,137.1 182,171.5C 186.049,196.196 178.549,216.529 159.5,232.5C 171.681,237.17 182.848,243.504 193,251.5C 226.885,220.822 265.385,213.322 308.5,229C 332.109,239.276 349.942,255.776 362,278.5C 369.457,272.52 377.623,267.686 386.5,264C 371.954,250.323 367.454,233.823 373,214.5C 385.373,187.569 405.873,178.402 434.5,187C 459.27,200.287 467.436,220.454 459,247.5C 456.306,254.184 452.14,259.684 446.5,264C 476.626,276.803 493.959,299.47 498.5,332C 498.902,336.2 497.235,339.2 493.5,341C 452.835,341.5 412.168,341.667 371.5,341.5C 370.023,354.763 365.857,367.097 359,378.5C 358.333,379.5 358.333,380.5 359,381.5C 364.864,387.699 371.031,393.532 377.5,399C 381.833,399.333 386.167,399.667 390.5,400C 391.833,400.667 393.167,401.333 394.5,402C 413.333,420.167 432.167,438.333 451,456.5C 455.916,464.748 455.582,472.748 450,480.5C 442.1,489.069 433.6,496.903 424.5,504C 419.411,504.826 414.411,504.492 409.5,503C 390,484.167 370.5,465.333 351,446.5C 347.797,440.824 346.797,434.824 348,428.5C 341.683,423.017 335.517,417.351 329.5,411.5C 292.815,435.601 254.815,437.768 215.5,418C 210.057,414.865 204.89,411.365 200,407.5C 194.918,412.166 190.418,417.333 186.5,423C 181.637,425.329 177.137,424.829 173,421.5C 159.025,402.691 144.859,384.025 130.5,365.5C 102.347,393.153 74.3471,420.986 46.5,449C 36.132,450.743 32.2987,446.577 35,436.5C 65.8611,405.305 97.0278,374.472 128.5,344C 132.793,342.798 136.293,343.965 139,347.5C 152.617,366.118 166.617,384.451 181,402.5C 182.793,399.705 184.96,397.205 187.5,395C 173.446,378.024 165.113,358.524 162.5,336.5C 114.17,335.667 65.8368,335.167 17.5,335C 15.3333,334.167 13.8333,332.667 13,330.5C 17.3603,282.798 41.8603,250.131 86.5,232.5C 59.3728,207.672 55.2061,179.339 74,147.5C 84.1049,135.035 96.9382,127.035 112.5,123.5 Z M 115.5,140.5 C 141.071,138.854 157.571,150.187 165,174.5C 168.285,201.102 157.118,218.269 131.5,226C 103.891,228.454 86.7246,216.287 80,189.5C 79.1382,163.867 90.9715,147.534 115.5,140.5 Z M 305.5,184.5 C 302.66,185.686 300.494,187.686 299,190.5C 297.435,196.201 299.268,200.367 304.5,203C 309.117,204.297 312.95,203.13 316,199.5C 318.916,189.998 315.416,184.998 305.5,184.5 Z M 411.5,200.5 C 431.22,200.057 442.553,209.557 445.5,229C 443.747,246.586 434.081,256.42 416.5,258.5C 399.17,256.504 389.504,246.837 387.5,229.5C 389.016,214.328 397.016,204.662 411.5,200.5 Z M 263.5,237.5 C 310.931,239.285 341.097,262.952 354,308.5C 360.128,354.754 342.294,387.921 300.5,408C 267.991,419.763 238.325,414.93 211.5,393.5C 213.333,391.167 215.167,388.833 217,386.5C 240.934,405.535 267.434,410.035 296.5,400C 331.867,383.443 348.367,355.609 346,316.5C 337.733,273.378 311.733,250.378 268,247.5C 234.133,248.587 209.8,264.254 195,294.5C 184.34,322.714 187.506,349.214 204.5,374C 203.042,376.46 201.209,378.627 199,380.5C 179.179,354.764 174.512,326.431 185,295.5C 199.819,260.686 225.986,241.352 263.5,237.5 Z M 121.5,244.5 C 122.5,244.5 123.5,244.5 124.5,244.5C 128.665,259.495 133.332,274.328 138.5,289C 133.333,294.833 128.167,300.667 123,306.5C 117.646,300.647 112.48,294.647 107.5,288.5C 112.373,273.882 117.039,259.216 121.5,244.5 Z M 99.5,246.5 C 100.5,246.5 101.5,246.5 102.5,246.5C 97.9653,261.438 93.632,276.438 89.5,291.5C 89.6667,292.833 89.8333,294.167 90,295.5C 96.8543,302.72 103.354,310.22 109.5,318C 83.5021,318.5 57.5021,318.667 31.5,318.5C 40.7734,281.892 63.4401,257.892 99.5,246.5 Z M 142.5,247.5 C 157.184,249.334 170.184,255.334 181.5,265.5C 170.619,281.473 164.285,299.14 162.5,318.5C 153.494,318.666 144.494,318.5 135.5,318C 142,310.833 148.5,303.667 155,296.5C 155.923,294.966 156.423,293.299 156.5,291.5C 152.401,276.541 147.735,261.875 142.5,247.5 Z M 258.5,264.5 C 290.5,262.742 313,276.408 326,305.5C 334.804,338.107 324.971,363.273 296.5,381C 275.841,391.06 255.507,390.393 235.5,379C 232.999,377.327 230.666,375.493 228.5,373.5C 240.769,357.728 253.602,342.395 267,327.5C 268.869,337.768 274.203,340.101 283,334.5C 284.581,328.277 284.915,321.944 284,315.5C 283.667,311.167 283.333,306.833 283,302.5C 282.535,301.069 281.701,299.903 280.5,299C 276.952,297.911 273.285,297.411 269.5,297.5C 261.712,297.62 254.046,298.453 246.5,300C 243.572,303.257 242.738,307.091 244,311.5C 246.448,314.473 249.614,315.973 253.5,316C 241.512,330.819 229.179,345.319 216.5,359.5C 201.178,334.506 202.344,310.173 220,286.5C 230.335,274.638 243.168,267.305 258.5,264.5 Z M 408.5,275.5 C 444.482,274.302 468.148,290.636 479.5,324.5C 443.833,324.5 408.167,324.5 372.5,324.5C 372.734,315.073 371.4,305.907 368.5,297C 379.497,285.337 392.83,278.17 408.5,275.5 Z M 347.5,394.5 C 354.018,399.839 359.518,405.839 364,412.5C 362.667,413.833 361.333,415.167 360,416.5C 354.667,411.167 349.333,405.833 344,400.5C 343.333,399.833 343.333,399.167 344,398.5C 345.376,397.295 346.542,395.962 347.5,394.5 Z M 383.5,416.5 C 384.239,416.369 384.906,416.536 385.5,417C 402.528,434.362 419.862,451.362 437.5,468C 430.947,474.898 424.28,481.231 417.5,487C 400.015,470.348 382.681,453.515 365.5,436.5C 371.152,429.515 377.152,422.848 383.5,416.5 Z"/></g>
</svg>
