<?xml version="1.0" encoding="UTF-8"?>
<!DOCTYPE svg PUBLIC "-//W3C//DTD SVG 1.1//EN" "http://www.w3.org/Graphics/SVG/1.1/DTD/svg11.dtd">
<svg xmlns="http://www.w3.org/2000/svg" version="1.1" width="512px" height="512px" style="shape-rendering:geometricPrecision; text-rendering:geometricPrecision; image-rendering:optimizeQuality; fill-rule:evenodd; clip-rule:evenodd" xmlns:xlink="http://www.w3.org/1999/xlink">
<g><path style="opacity:0.934" fill="#000000" d="M 88.5,-0.5 C 97.5,-0.5 106.5,-0.5 115.5,-0.5C 162.808,9.38655 189.641,38.3865 196,86.5C 196.959,130.762 177.459,162.262 137.5,181C 92.3453,195.829 54.8453,184.996 25,148.5C 1.09647,110.357 1.76314,72.6899 27,35.5C 42.9076,15.6304 63.4076,3.63036 88.5,-0.5 Z M 90.5,17.5 C 123.22,14.6144 148.72,26.6144 167,53.5C 183.426,83.5679 181.759,112.568 162,140.5C 135.095,170.184 103.262,177.017 66.5,161C 33.9721,141.099 21.1388,112.265 28,74.5C 37.5976,43.0647 58.4309,24.0647 90.5,17.5 Z"/></g>
<g><path style="opacity:0.934" fill="#000000" d="M 395.5,-0.5 C 404.5,-0.5 413.5,-0.5 422.5,-0.5C 468.503,9.00525 495.336,37.0052 503,83.5C 505.331,129.372 485.831,161.872 444.5,181C 402.307,195.244 366.14,186.077 336,153.5C 307.733,114.086 307.4,74.4196 335,34.5C 350.898,15.4307 371.065,3.76399 395.5,-0.5 Z M 397.5,17.5 C 440.607,14.9488 469.107,33.9488 483,74.5C 489.86,112.268 477.026,141.102 444.5,161C 407.738,177.017 375.905,170.184 349,140.5C 327.425,109.74 327.091,78.7395 348,47.5C 361.048,31.7292 377.548,21.7292 397.5,17.5 Z"/></g>
<g><path style="opacity:0.933" fill="#000000" d="M 99.5,41.5 C 104.023,41.1795 107.523,42.8462 110,46.5C 110.667,66.5 110.667,86.5 110,106.5C 106.692,110.327 102.526,111.494 97.5,110C 95.1898,108.363 93.6898,106.196 93,103.5C 92.3333,85.5 92.3333,67.5 93,49.5C 93.6122,45.4029 95.7789,42.7363 99.5,41.5 Z"/></g>
<g><path style="opacity:0.921" fill="#000000" d="M 439.5,50.5 C 449.802,49.9624 453.635,54.629 451,64.5C 433.615,86.8838 416.615,109.55 400,132.5C 396.146,136.671 391.646,137.504 386.5,135C 380.333,128.833 374.167,122.667 368,116.5C 364.116,106.067 367.616,101.234 378.5,102C 382.967,105.465 387.133,109.298 391,113.5C 406.678,92.0054 422.845,71.0054 439.5,50.5 Z"/></g>
<g><path style="opacity:0.874" fill="#000000" d="M 99.5,126.5 C 109.019,126.514 112.519,131.181 110,140.5C 105.758,145.442 100.924,146.276 95.5,143C 91.2043,136.065 92.5376,130.565 99.5,126.5 Z"/></g>
<g><path style="opacity:0.947" fill="#000000" d="M 511.5,223.5 C 511.5,237.833 511.5,252.167 511.5,266.5C 504.846,293.487 487.846,309.487 460.5,314.5C 462.825,344.629 449.825,364.462 421.5,374C 397.069,378.641 378.069,370.641 364.5,350C 345.503,349.5 326.503,349.333 307.5,349.5C 307.5,369.167 307.5,388.833 307.5,408.5C 325.836,408.333 344.17,408.5 362.5,409C 373.119,410.951 379.952,417.118 383,427.5C 383.333,435.833 383.667,444.167 384,452.5C 394.29,456.785 399.956,464.451 401,475.5C 401.831,483.888 401.497,492.221 400,500.5C 397.98,505.685 394.48,509.352 389.5,511.5C 300.167,511.5 210.833,511.5 121.5,511.5C 116.857,509.021 113.357,505.355 111,500.5C 109.033,490.173 109.033,479.839 111,469.5C 113.912,461.587 119.245,455.921 127,452.5C 127.333,444.167 127.667,435.833 128,427.5C 131.048,417.118 137.881,410.951 148.5,409C 166.83,408.5 185.164,408.333 203.5,408.5C 203.5,388.833 203.5,369.167 203.5,349.5C 184.497,349.333 165.497,349.5 146.5,350C 132.931,370.641 113.931,378.641 89.5,374C 61.1746,364.462 48.1746,344.629 50.5,314.5C 23.1505,309.483 6.15047,293.483 -0.5,266.5C -0.5,252.167 -0.5,237.833 -0.5,223.5C 2.0678,218.436 6.0678,214.936 11.5,213C 71.8333,212.333 132.167,212.333 192.5,213C 198.36,214.859 202.193,218.693 204,224.5C 204.667,238.167 204.667,251.833 204,265.5C 201.886,277.561 196.719,288.061 188.5,297C 196.188,297.831 203.855,297.665 211.5,296.5C 225.704,276.149 245.037,268.649 269.5,274C 282.523,277.53 292.523,285.03 299.5,296.5C 307.145,297.665 314.812,297.831 322.5,297C 314.281,288.061 309.114,277.561 307,265.5C 306.333,251.833 306.333,238.167 307,224.5C 308.807,218.693 312.64,214.859 318.5,213C 378.833,212.333 439.167,212.333 499.5,213C 504.932,214.936 508.932,218.436 511.5,223.5 Z M 17.5,230.5 C 73.8333,230.5 130.167,230.5 186.5,230.5C 186.894,242.886 186.394,255.22 185,267.5C 179.453,283.714 168.286,293.547 151.5,297C 118.5,297.667 85.5,297.667 52.5,297C 35.7259,293.561 24.5592,283.727 19,267.5C 17.5824,255.228 17.0824,242.895 17.5,230.5 Z M 324.5,230.5 C 380.833,230.5 437.167,230.5 493.5,230.5C 493.918,242.895 493.418,255.228 492,267.5C 486.441,283.727 475.274,293.561 458.5,297C 425.5,297.667 392.5,297.667 359.5,297C 342.714,293.547 331.547,283.714 326,267.5C 324.606,255.22 324.106,242.886 324.5,230.5 Z M 248.5,290.5 C 271.179,289.027 284.679,299.36 289,321.5C 289.5,350.498 289.667,379.498 289.5,408.5C 266.833,408.5 244.167,408.5 221.5,408.5C 221.046,377.464 221.546,346.464 223,315.5C 227.095,302.571 235.595,294.238 248.5,290.5 Z M 68.5,315.5 C 90.8333,315.5 113.167,315.5 135.5,315.5C 137.055,339.768 125.889,353.768 102,357.5C 86.5646,356.389 75.8979,348.722 70,334.5C 68.6827,328.243 68.1827,321.909 68.5,315.5 Z M 153.5,315.5 C 170.5,315.5 187.5,315.5 204.5,315.5C 203.725,320.797 203.392,326.13 203.5,331.5C 186.833,331.5 170.167,331.5 153.5,331.5C 153.5,326.167 153.5,320.833 153.5,315.5 Z M 306.5,315.5 C 323.5,315.5 340.5,315.5 357.5,315.5C 357.5,320.833 357.5,326.167 357.5,331.5C 340.833,331.5 324.167,331.5 307.5,331.5C 307.608,326.13 307.275,320.797 306.5,315.5 Z M 375.5,315.5 C 397.833,315.5 420.167,315.5 442.5,315.5C 444.522,333.63 437.522,346.797 421.5,355C 398.232,360.949 383.065,352.449 376,329.5C 375.501,324.845 375.334,320.179 375.5,315.5 Z M 151.5,426.5 C 220.834,426.333 290.167,426.5 359.5,427C 362.232,427.398 364.065,428.898 365,431.5C 365.5,438.158 365.666,444.825 365.5,451.5C 292.167,451.5 218.833,451.5 145.5,451.5C 145.334,444.825 145.5,438.158 146,431.5C 147.107,428.887 148.94,427.22 151.5,426.5 Z M 133.5,469.5 C 214.834,469.333 296.167,469.5 377.5,470C 379.286,470.785 380.786,471.951 382,473.5C 383.329,480.092 383.829,486.759 383.5,493.5C 298.167,493.5 212.833,493.5 127.5,493.5C 127.171,486.759 127.671,480.092 129,473.5C 130.397,471.93 131.897,470.596 133.5,469.5 Z"/></g>
<g><path style="opacity:0.897" fill="#000000" d="M 253.5,314.5 C 258.382,314.175 261.882,316.175 264,320.5C 264.667,325.5 264.667,330.5 264,335.5C 260.96,341.368 256.46,342.868 250.5,340C 248.951,338.786 247.785,337.286 247,335.5C 246.333,330.5 246.333,325.5 247,320.5C 248.436,317.558 250.603,315.558 253.5,314.5 Z"/></g>
</svg>
