<?xml version="1.0" encoding="UTF-8"?>
<!DOCTYPE svg PUBLIC "-//W3C//DTD SVG 1.1//EN" "http://www.w3.org/Graphics/SVG/1.1/DTD/svg11.dtd">
<svg xmlns="http://www.w3.org/2000/svg" version="1.1" width="512px" height="512px" style="shape-rendering:geometricPrecision; text-rendering:geometricPrecision; image-rendering:optimizeQuality; fill-rule:evenodd; clip-rule:evenodd" xmlns:xlink="http://www.w3.org/1999/xlink">
<g><path style="opacity:0.932" fill="#000000" d="M 386.5,6.5 C 393.841,6.33368 401.174,6.50034 408.5,7C 409.333,7.83333 410.167,8.66667 411,9.5C 412.58,16.7072 413.414,24.0405 413.5,31.5C 415.5,41.6578 411.5,46.1578 401.5,45C 398.215,43.1987 396.381,40.3654 396,36.5C 362.5,74 329,111.5 295.5,149C 306.086,165.901 305.252,182.401 293,198.5C 278.529,211.533 262.363,214.033 244.5,206C 228.938,195.676 222.438,181.176 225,162.5C 211.911,155.706 198.745,149.039 185.5,142.5C 175,154.056 162,158.556 146.5,156C 141.013,154.922 136.013,152.756 131.5,149.5C 114.019,164.48 96.6853,179.647 79.5,195C 88.3325,215.337 83.9991,232.337 66.5,246C 45.2043,256.77 27.0377,252.936 12,234.5C 3.86137,218.185 4.86137,202.518 15,187.5C 25.7981,176.17 38.9648,172.003 54.5,175C 59.4733,176.237 63.9733,178.404 68,181.5C 84.705,166.46 101.705,151.793 119,137.5C 117.299,131.176 116.133,124.676 115.5,118C 117.245,93.755 130.245,80.5883 154.5,78.5C 171.769,79.5397 183.935,87.873 191,103.5C 191.822,105.788 192.489,108.122 193,110.5C 193.336,116.289 193.502,121.956 193.5,127.5C 206.289,133.394 218.956,139.561 231.5,146C 232.5,146.667 233.5,146.667 234.5,146C 248.643,131.839 264.81,129.005 283,137.5C 316.5,100 350,62.5 383.5,25C 375.051,24.2779 371.884,19.7779 374,11.5C 375.167,10.3333 376.333,9.16667 377.5,8C 380.695,7.81948 383.695,7.31948 386.5,6.5 Z M 151.5,95.5 C 168.644,96.4732 176.811,105.473 176,122.5C 169.532,138.48 158.366,142.98 142.5,136C 129.646,124.448 129.312,112.448 141.5,100C 144.815,98.1702 148.149,96.6702 151.5,95.5 Z M 261.5,149.5 C 278.954,150.736 286.788,160.069 285,177.5C 278.203,193.101 267.036,197.268 251.5,190C 238.538,177.393 238.871,165.06 252.5,153C 255.571,151.704 258.571,150.538 261.5,149.5 Z M 39.5,191.5 C 55.5594,190.222 64.8928,197.556 67.5,213.5C 65.767,226.733 58.267,234.066 45,235.5C 25.4699,230.773 19.4699,219.106 27,200.5C 30.2991,196.118 34.4657,193.118 39.5,191.5 Z"/></g>
<g><path style="opacity:0.943" fill="#000000" d="M 391.5,85.5 C 396.462,85.3216 400.295,87.3216 403,91.5C 422.286,116.455 441.953,141.122 462,165.5C 462.667,168.5 462.667,171.5 462,174.5C 460.786,176.049 459.286,177.215 457.5,178C 448.84,178.5 440.173,178.666 431.5,178.5C 431.333,227.501 431.5,276.501 432,325.5C 441.584,351.824 439.751,377.324 426.5,402C 431.167,406.667 435.833,411.333 440.5,416C 446.144,414.857 451.477,415.857 456.5,419C 471.362,434.196 486.529,449.029 502,463.5C 504.923,469.325 505.256,475.325 503,481.5C 496.129,490.038 488.296,497.538 479.5,504C 472.779,505.52 466.779,504.187 461.5,500C 447.305,485.471 432.805,471.304 418,457.5C 416.589,455.35 415.755,453.016 415.5,450.5C 282.5,450.667 149.5,450.5 16.5,450C 15.3333,448.833 14.1667,447.667 13,446.5C 12.3333,434.5 12.3333,422.5 13,410.5C 14.1667,409.333 15.3333,408.167 16.5,407C 20.1516,406.501 23.8183,406.335 27.5,406.5C 27.3334,375.165 27.5,343.832 28,312.5C 29.214,310.951 30.714,309.785 32.5,309C 54.5,308.333 76.5,308.333 98.5,309C 100.726,310.227 102.226,312.061 103,314.5C 103.5,345.165 103.667,375.832 103.5,406.5C 114.5,406.5 125.5,406.5 136.5,406.5C 136.333,342.499 136.5,278.499 137,214.5C 138.38,211.117 140.88,209.284 144.5,209C 164.833,208.333 185.167,208.333 205.5,209C 208.196,209.69 210.363,211.19 212,213.5C 212.5,277.832 212.667,342.166 212.5,406.5C 223.833,406.5 235.167,406.5 246.5,406.5C 246.009,354.749 246.509,303.083 248,251.5C 248.75,250.874 249.584,250.374 250.5,250C 272.833,249.333 295.167,249.333 317.5,250C 320.094,251.339 321.594,253.506 322,256.5C 322.169,262.859 322.669,269.193 323.5,275.5C 334.038,271.978 344.704,270.645 355.5,271.5C 355.5,240.5 355.5,209.5 355.5,178.5C 347.16,178.666 338.827,178.5 330.5,178C 325.879,175.923 324.045,172.423 325,167.5C 345.285,140.88 365.952,114.546 387,88.5C 388.652,87.6006 390.152,86.6006 391.5,85.5 Z M 393.5,108.5 C 407.969,125.811 422.302,143.311 436.5,161C 430.833,161.333 425.167,161.667 419.5,162C 417.333,162.833 415.833,164.333 415,166.5C 414.667,210.167 414.333,253.833 414,297.5C 402.494,285.91 388.827,277.91 373,273.5C 372.667,237.833 372.333,202.167 372,166.5C 371.167,164.333 369.667,162.833 367.5,162C 362.167,161.667 356.833,161.333 351.5,161C 365.714,143.625 379.714,126.125 393.5,108.5 Z M 153.5,225.5 C 167.5,225.5 181.5,225.5 195.5,225.5C 195.5,285.833 195.5,346.167 195.5,406.5C 181.5,406.5 167.5,406.5 153.5,406.5C 153.5,346.167 153.5,285.833 153.5,225.5 Z M 263.5,266.5 C 277.167,266.5 290.833,266.5 304.5,266.5C 304.666,272.509 304.499,278.509 304,284.5C 280.184,300.45 266.85,322.783 264,351.5C 263.5,323.169 263.333,294.835 263.5,266.5 Z M 339.5,288.5 C 376.224,285.764 402.057,301.097 417,334.5C 426.809,369.411 416.976,397.245 387.5,418C 355.002,434.834 325.502,430.667 299,405.5C 276.944,377.888 274.944,348.888 293,318.5C 304.768,302.543 320.268,292.543 339.5,288.5 Z M 344.5,316.5 C 369.272,315.46 385.105,326.793 392,350.5C 394.158,373.354 384.658,389.188 363.5,398C 336.386,403.357 318.553,392.857 310,366.5C 307.905,340.333 319.405,323.666 344.5,316.5 Z M 44.5,325.5 C 58.5,325.5 72.5,325.5 86.5,325.5C 86.5,352.5 86.5,379.5 86.5,406.5C 72.5,406.5 58.5,406.5 44.5,406.5C 44.5,379.5 44.5,352.5 44.5,325.5 Z M 263.5,365.5 C 265.148,379.773 269.815,393.107 277.5,405.5C 272.88,406.493 268.214,406.827 263.5,406.5C 263.5,392.833 263.5,379.167 263.5,365.5 Z M 415.5,416.5 C 419.737,419.228 423.571,422.561 427,426.5C 427.563,427.725 427.23,428.725 426,429.5C 422.167,425.667 418.333,421.833 414.5,418C 415.056,417.617 415.389,417.117 415.5,416.5 Z M 29.5,423.5 C 117.501,423.333 205.501,423.5 293.5,424C 297.217,427.385 301.217,430.385 305.5,433C 213.501,433.5 121.501,433.667 29.5,433.5C 29.5,430.167 29.5,426.833 29.5,423.5 Z M 400.5,429.5 C 402.01,430.836 403.677,432.003 405.5,433C 402.167,433.667 398.833,433.667 395.5,433C 397.584,432.303 399.251,431.136 400.5,429.5 Z M 445.5,433.5 C 459.435,445.933 472.935,458.933 486,472.5C 486.667,473.167 486.667,473.833 486,474.5C 482.167,478.333 478.333,482.167 474.5,486C 473.833,486.667 473.167,486.667 472.5,486C 458.862,473.363 445.529,460.363 432.5,447C 437.037,442.631 441.37,438.131 445.5,433.5 Z"/></g>
<g><path style="opacity:0.931" fill="#000000" d="M 342.5,299.5 C 378.022,297.987 400.189,314.321 409,348.5C 411.018,389.47 391.685,412.47 351,417.5C 319.723,415.218 300.39,398.885 293,368.5C 290.089,331.284 306.589,308.284 342.5,299.5 Z M 344.5,316.5 C 319.405,323.666 307.905,340.333 310,366.5C 318.553,392.857 336.386,403.357 363.5,398C 384.658,389.188 394.158,373.354 392,350.5C 385.105,326.793 369.272,315.46 344.5,316.5 Z"/></g>
<g><path style="opacity:0.922" fill="#000000" d="M 371.5,334.5 C 380.846,334.332 384.346,338.665 382,347.5C 370.133,359.035 357.967,370.202 345.5,381C 342.5,381.667 339.5,381.667 336.5,381C 331,375.5 325.5,370 320,364.5C 317.137,354.359 320.97,350.192 331.5,352C 334.667,355.167 337.833,358.333 341,361.5C 351.361,352.635 361.527,343.635 371.5,334.5 Z"/></g>
</svg>
