<?xml version="1.0" encoding="UTF-8"?>
<!DOCTYPE svg PUBLIC "-//W3C//DTD SVG 1.1//EN" "http://www.w3.org/Graphics/SVG/1.1/DTD/svg11.dtd">
<svg xmlns="http://www.w3.org/2000/svg" version="1.1" width="512px" height="512px" style="shape-rendering:geometricPrecision; text-rendering:geometricPrecision; image-rendering:optimizeQuality; fill-rule:evenodd; clip-rule:evenodd" xmlns:xlink="http://www.w3.org/1999/xlink">
<g><path style="opacity:0.913" fill="#000000" d="M 102.5,14.5 C 114.505,14.3335 126.505,14.5001 138.5,15C 140.624,16.1217 142.457,17.6217 144,19.5C 145.095,25.7091 146.262,31.8757 147.5,38C 152.064,39.2819 156.397,41.1153 160.5,43.5C 164.309,40.8579 167.976,38.0246 171.5,35C 176.5,31.6667 181.5,31.6667 186.5,35C 194.404,42.234 201.571,50.0673 208,58.5C 208.667,61.5 208.667,64.5 208,67.5C 204.705,71.9294 201.538,76.4294 198.5,81C 200.233,85.7979 202.233,90.4646 204.5,95C 223.801,93.3037 231.468,101.97 227.5,121C 227.333,126.5 227.167,132 227,137.5C 225.73,141.77 222.896,144.27 218.5,145C 213.504,145.611 208.504,146.111 203.5,146.5C 202.384,151.678 200.384,156.511 197.5,161C 201.382,165.214 204.882,169.714 208,174.5C 208.837,178.295 208.504,181.961 207,185.5C 199.47,193.365 191.636,200.865 183.5,208C 180.5,208.667 177.5,208.667 174.5,208C 169.714,204.882 165.214,201.382 161,197.5C 156.511,200.384 151.678,202.384 146.5,203.5C 146.213,209.584 145.38,215.584 144,221.5C 142.749,224.381 140.583,226.214 137.5,227C 125.429,227.937 113.429,227.604 101.5,226C 99.6217,224.457 98.1217,222.624 97,220.5C 96.07,215.201 95.4034,209.867 95,204.5C 90.4646,202.233 85.7979,200.233 81,198.5C 76.4294,201.538 71.9294,204.705 67.5,208C 62.8887,209.007 58.5554,208.34 54.5,206C 47.3017,199.136 40.4684,191.97 34,184.5C 32,180.833 32,177.167 34,173.5C 37.1667,169.167 40.3333,164.833 43.5,160.5C 41.3742,156.289 39.5409,151.956 38,147.5C 32.2043,146.294 26.371,145.128 20.5,144C 18,142.833 16.1667,141 15,138.5C 14.3333,126.5 14.3333,114.5 15,102.5C 16.2506,99.6193 18.4173,97.786 21.5,97C 26.7993,96.07 32.1327,95.4034 37.5,95C 39.353,90.1246 41.353,85.2913 43.5,80.5C 40.5237,76.3562 37.357,72.3562 34,68.5C 31.9609,64.0132 32.2943,59.6798 35,55.5C 41.8333,48.6667 48.6667,41.8333 55.5,35C 59.6798,32.2943 64.0132,31.9609 68.5,34C 72.3562,37.357 76.3562,40.5237 80.5,43.5C 85.0548,41.3895 89.7215,39.5562 94.5,38C 95.3638,32.5532 96.1971,27.0532 97,21.5C 97.9668,18.3794 99.8001,16.046 102.5,14.5 Z M 109.5,26.5 C 117.167,26.5 124.833,26.5 132.5,26.5C 132.889,31.504 133.389,36.504 134,41.5C 134.516,44.0336 135.683,46.2002 137.5,48C 145.393,51.4467 153.393,54.6134 161.5,57.5C 163.942,56.9639 166.275,56.1306 168.5,55C 172,52.1667 175.5,49.3333 179,46.5C 184,51.5 189,56.5 194,61.5C 194.667,62.5 194.667,63.5 194,64.5C 190.615,68.2171 187.615,72.2171 185,76.5C 184.333,79.1667 184.333,81.8333 185,84.5C 188.178,91.3853 191.345,98.2186 194.5,105C 200.77,107.575 207.27,109.075 214,109.5C 214.5,117.159 214.666,124.826 214.5,132.5C 207.915,132.543 201.582,133.71 195.5,136C 193.951,137.214 192.785,138.714 192,140.5C 189.388,147.505 186.888,154.505 184.5,161.5C 185.845,167.849 189.012,173.182 194,177.5C 189.875,183.807 184.708,189.473 178.5,194.5C 174.691,191.858 171.024,189.025 167.5,186C 165.634,185.015 163.634,184.515 161.5,184.5C 153.761,187.025 146.094,189.859 138.5,193C 136.383,194.731 134.883,196.898 134,199.5C 133.389,204.496 132.889,209.496 132.5,214.5C 124.804,214.831 117.138,214.497 109.5,213.5C 109.047,206.909 107.547,200.575 105,194.5C 98.2186,191.345 91.3853,188.178 84.5,185C 81.8333,184.333 79.1667,184.333 76.5,185C 72.2171,187.615 68.2171,190.615 64.5,194C 63.5,194.667 62.5,194.667 61.5,194C 56.5,189 51.5,184 46.5,179C 49.3333,175.5 52.1667,172 55,168.5C 56.1306,166.275 56.9639,163.942 57.5,161.5C 54.6134,153.393 51.4467,145.393 48,137.5C 46.2002,135.683 44.0336,134.516 41.5,134C 36.504,133.389 31.504,132.889 26.5,132.5C 26.1692,124.804 26.5025,117.138 27.5,109.5C 33.6194,108.922 39.6194,107.755 45.5,106C 46.6667,104.833 47.8333,103.667 49,102.5C 51.2752,95.674 53.9419,89.0073 57,82.5C 57.3283,79.7929 56.995,77.1262 56,74.5C 52.8333,70.6667 49.6667,66.8333 46.5,63C 52,57.5 57.5,52 63,46.5C 67.707,52.0559 73.5404,55.7226 80.5,57.5C 87.7173,54.3923 95.0507,51.559 102.5,49C 104.378,47.4571 105.878,45.6238 107,43.5C 107.966,37.8316 108.799,32.1649 109.5,26.5 Z M 114.5,86.5 C 138.696,85.5322 152.363,97.0322 155.5,121C 153,141.5 141.5,153 121,155.5C 96.8851,152.388 85.5518,138.722 87,114.5C 91.0159,99.985 100.183,90.6517 114.5,86.5 Z"/></g>
<g><path style="opacity:0.908" fill="#000000" d="M 112.5,73.5 C 148.352,72.5227 166.852,89.856 168,125.5C 162.576,153.926 145.409,168.093 116.5,168C 95.3145,165.326 81.4811,153.826 75,133.5C 70.0436,102.386 82.5436,82.3861 112.5,73.5 Z M 114.5,86.5 C 100.183,90.6517 91.0159,99.985 87,114.5C 85.5518,138.722 96.8851,152.388 121,155.5C 141.5,153 153,141.5 155.5,121C 152.363,97.0322 138.696,85.5322 114.5,86.5 Z"/></g>
<g><path style="opacity:0.906" fill="#000000" d="M 367.5,87.5 C 382.985,89.3695 398.318,92.2029 413.5,96C 418.145,98.0246 419.645,101.525 418,106.5C 415.128,119.862 412.128,133.195 409,146.5C 402.729,151.353 398.563,150.019 396.5,142.5C 398.835,133.51 400.668,124.51 402,115.5C 293.701,179.067 184.867,241.734 75.5,303.5C 67.0767,300.079 66.41,295.579 73.5,290C 180.425,228.733 287.092,167.066 393.5,105C 384.757,103.314 376.09,101.314 367.5,99C 364.875,95.1681 364.875,91.3348 367.5,87.5 Z"/></g>
<g><path style="opacity:0.936" fill="#000000" d="M 377.5,182.5 C 400.836,182.333 424.169,182.5 447.5,183C 448.333,183.833 449.167,184.667 450,185.5C 450.167,201.844 450.667,218.177 451.5,234.5C 453.826,235.813 455.159,237.813 455.5,240.5C 454.53,243.774 453.03,246.774 451,249.5C 450.333,255.5 450.333,261.5 451,267.5C 466.451,275.727 476.117,288.394 480,305.5C 480.5,356.499 480.667,407.499 480.5,458.5C 493.429,461.492 498.762,469.659 496.5,483C 496.333,486.833 496.167,490.667 496,494.5C 495.5,495 495,495.5 494.5,496C 335.167,496.667 175.833,496.667 16.5,496C 13.8333,492.333 13.8333,488.667 16.5,485C 31.8297,484.5 47.163,484.333 62.5,484.5C 62.3333,436.832 62.5,389.166 63,341.5C 63.6517,339.277 65.1517,338.11 67.5,338C 89.5,337.333 111.5,337.333 133.5,338C 135.492,338.574 136.992,339.741 138,341.5C 138.5,389.166 138.667,436.832 138.5,484.5C 146.833,484.5 155.167,484.5 163.5,484.5C 163.333,413.499 163.5,342.499 164,271.5C 164.833,270.667 165.667,269.833 166.5,269C 189.833,268.333 213.167,268.333 236.5,269C 237.333,269.833 238.167,270.667 239,271.5C 239.333,278.167 239.667,284.833 240,291.5C 246.988,284.263 255.155,278.929 264.5,275.5C 264.333,256.164 264.5,236.83 265,217.5C 265.5,215.667 266.667,214.5 268.5,214C 291.5,213.333 314.5,213.333 337.5,214C 338.333,214.833 339.167,215.667 340,216.5C 340.333,223.167 340.667,229.833 341,236.5C 343.896,234.255 347.063,233.922 350.5,235.5C 354.359,243.03 359.693,249.363 366.5,254.5C 366.833,254 367.167,253.5 367.5,253C 365.223,244.282 364.056,235.449 364,226.5C 364.5,224.667 365.667,223.5 367.5,223C 369.81,222.503 372.143,222.337 374.5,222.5C 374.333,210.162 374.5,197.829 375,185.5C 376.045,184.627 376.878,183.627 377.5,182.5 Z M 427.5,254.5 C 429.156,246.231 430.489,237.898 431.5,229.5C 431.514,227.407 430.848,225.574 429.5,224C 415.598,222.535 401.598,222.035 387.5,222.5C 387.5,213.5 387.5,204.5 387.5,195.5C 404.167,195.5 420.833,195.5 437.5,195.5C 437.667,212.503 437.5,229.503 437,246.5C 434.234,249.777 431.067,252.443 427.5,254.5 Z M 277.5,226.5 C 294.167,226.5 310.833,226.5 327.5,226.5C 327.986,244.986 327.486,263.32 326,281.5C 311.139,271.994 294.972,268.661 277.5,271.5C 277.5,256.5 277.5,241.5 277.5,226.5 Z M 377.5,235.5 C 390.833,235.5 404.167,235.5 417.5,235.5C 416.416,244.501 414.083,253.168 410.5,261.5C 401.833,262.833 393.167,262.833 384.5,261.5C 380.648,253.241 378.315,244.574 377.5,235.5 Z M 340.5,244.5 C 344.642,251.238 349.642,257.404 355.5,263C 350.6,264.969 345.767,267.135 341,269.5C 340.5,261.173 340.334,252.84 340.5,244.5 Z M 361.5,275.5 C 387.21,275.047 412.877,275.547 438.5,277C 453.537,282.036 463.037,292.203 467,307.5C 467.5,357.832 467.667,408.166 467.5,458.5C 461.491,458.334 455.491,458.501 449.5,459C 446.424,461.612 445.757,464.779 447.5,468.5C 448.912,469.806 450.579,470.64 452.5,471C 461.833,471.333 471.167,471.667 480.5,472C 483.883,475.444 485.216,479.61 484.5,484.5C 442.828,484.833 401.161,484.5 359.5,483.5C 362.433,474.826 361.1,466.826 355.5,459.5C 363.5,449.167 363.5,438.833 355.5,428.5C 364.015,416.221 362.681,405.054 351.5,395C 344.47,392.149 337.137,390.815 329.5,391C 354.832,369.512 361.999,343.012 351,311.5C 347.529,303.383 342.695,296.217 336.5,290C 343.416,282.548 351.749,277.715 361.5,275.5 Z M 176.5,281.5 C 193.167,281.5 209.833,281.5 226.5,281.5C 226.667,292.505 226.5,303.505 226,314.5C 220.061,330.14 220.061,345.806 226,361.5C 226.667,372.833 226.667,384.167 226,395.5C 215,405.491 213.833,416.491 222.5,428.5C 214.607,438.847 214.607,449.181 222.5,459.5C 216.9,466.828 215.567,474.828 218.5,483.5C 204.516,484.499 190.516,484.833 176.5,484.5C 176.5,416.833 176.5,349.167 176.5,281.5 Z M 281.5,283.5 C 318.013,283.348 338.68,301.348 343.5,337.5C 340.779,366.72 325.112,384.554 296.5,391C 270.007,393.006 250.841,382.173 239,358.5C 229.721,330.336 237.221,307.836 261.5,291C 267.878,287.379 274.545,284.879 281.5,283.5 Z M 75.5,350.5 C 92.1667,350.5 108.833,350.5 125.5,350.5C 125.5,395.167 125.5,439.833 125.5,484.5C 108.833,484.5 92.1667,484.5 75.5,484.5C 75.5,439.833 75.5,395.167 75.5,350.5 Z M 239.5,383.5 C 242.335,386.165 245.335,388.665 248.5,391C 245.518,391.498 242.518,391.665 239.5,391.5C 239.5,388.833 239.5,386.167 239.5,383.5 Z M 236.5,404.5 C 271.502,404.333 306.502,404.5 341.5,405C 350.799,410.715 350.799,416.381 341.5,422C 306.5,422.667 271.5,422.667 236.5,422C 227.247,416.286 227.247,410.453 236.5,404.5 Z M 234.5,435.5 C 270.502,435.333 306.502,435.5 342.5,436C 347.396,439.024 348.896,443.191 347,448.5C 345.363,450.81 343.196,452.31 340.5,453C 306.167,453.667 271.833,453.667 237.5,453C 228.357,448.435 227.357,442.602 234.5,435.5 Z M 234.5,466.5 C 270.835,466.333 307.168,466.5 343.5,467C 350.65,474.564 349.316,480.231 339.5,484C 305.833,484.667 272.167,484.667 238.5,484C 228.575,480.066 227.241,474.233 234.5,466.5 Z"/></g>
<g><path style="opacity:0.906" fill="#000000" d="M 286.5,291.5 C 289.272,291.22 291.772,291.887 294,293.5C 295.19,297.381 295.857,301.381 296,305.5C 306.912,309.672 311.245,317.338 309,328.5C 302.019,332.545 298.019,330.545 297,322.5C 291.62,315.857 286.287,315.857 281,322.5C 280.289,324.367 280.789,325.867 282.5,327C 289.956,330.481 297.289,334.148 304.5,338C 311.449,345.1 312.282,352.934 307,361.5C 304.007,365.157 300.34,367.823 296,369.5C 295.667,372.833 295.333,376.167 295,379.5C 292.082,383.883 288.415,384.55 284,381.5C 282.81,377.619 282.143,373.619 282,369.5C 271.585,365.764 266.918,358.43 268,347.5C 272,343.5 276,343.5 280,347.5C 281.404,356.252 286.237,358.919 294.5,355.5C 297.771,353.242 298.104,350.742 295.5,348C 287.888,344.861 280.554,341.194 273.5,337C 265.142,327.159 265.808,317.826 275.5,309C 277.746,307.961 279.913,306.794 282,305.5C 282.333,302.167 282.667,298.833 283,295.5C 283.69,293.65 284.856,292.316 286.5,291.5 Z"/></g>
<g><path style="opacity:0.92" fill="#000000" d="M 394.5,298.5 C 397.602,298.154 400.435,298.821 403,300.5C 404.339,307.426 404.839,314.426 404.5,321.5C 410.509,321.334 416.509,321.501 422.5,322C 423.416,322.374 424.25,322.874 425,323.5C 426.615,333.4 426.949,343.4 426,353.5C 422,358.833 418,358.833 414,353.5C 413.5,347.175 413.334,340.842 413.5,334.5C 402.833,334.5 392.167,334.5 381.5,334.5C 381.5,345.167 381.5,355.833 381.5,366.5C 395.171,366.333 408.837,366.5 422.5,367C 424.333,367.5 425.5,368.667 426,370.5C 426.667,387.167 426.667,403.833 426,420.5C 425.5,422.333 424.333,423.5 422.5,424C 416.509,424.499 410.509,424.666 404.5,424.5C 404.839,431.574 404.339,438.574 403,445.5C 398.938,448.429 395.272,448.096 392,444.5C 391.5,437.842 391.334,431.175 391.5,424.5C 385.158,424.666 378.825,424.5 372.5,424C 371.584,423.626 370.75,423.126 370,422.5C 368.385,412.6 368.051,402.6 369,392.5C 373,387.167 377,387.167 381,392.5C 381.5,398.825 381.666,405.158 381.5,411.5C 392.167,411.5 402.833,411.5 413.5,411.5C 413.5,400.833 413.5,390.167 413.5,379.5C 399.829,379.667 386.163,379.5 372.5,379C 370.667,378.5 369.5,377.333 369,375.5C 368.333,358.833 368.333,342.167 369,325.5C 369.5,323.667 370.667,322.5 372.5,322C 378.825,321.5 385.158,321.334 391.5,321.5C 391.334,314.825 391.5,308.158 392,301.5C 392.698,300.309 393.531,299.309 394.5,298.5 Z"/></g>
</svg>
